<mxfile host="app.diagrams.net" modified="2020-08-06T08:51:31.460Z" agent="5.0 (Macintosh; Intel Mac OS X 10_15_4) AppleWebKit/537.36 (KHTML, like Gecko) Chrome/84.0.4147.105 Safari/537.36" etag="Pp6tuesnZzmgDBkQOe4n" version="13.6.0" type="github">
  <diagram id="HU-P4IUZ7dDAn_C-CXK9" name="webアプリ">
    <mxGraphModel dx="706" dy="572" grid="1" gridSize="10" guides="1" tooltips="1" connect="1" arrows="1" fold="1" page="1" pageScale="1" pageWidth="827" pageHeight="1169" math="0" shadow="0">
      <root>
        <mxCell id="0" />
        <mxCell id="1" parent="0" />
        <mxCell id="q6XPmWuKXVtPRQOwv97A-1" value="" style="rounded=0;whiteSpace=wrap;html=1;fontColor=#2DB3FF;fillColor=#2DB3FF;" parent="1" vertex="1">
          <mxGeometry x="39" y="300" width="544.17" height="356" as="geometry" />
        </mxCell>
        <mxCell id="q6XPmWuKXVtPRQOwv97A-3" value="/(welcomepage)" style="text;html=1;strokeColor=none;fillColor=none;align=left;verticalAlign=middle;whiteSpace=wrap;rounded=0;fontSize=30;" parent="1" vertex="1">
          <mxGeometry x="39" y="260" width="431" height="40" as="geometry" />
        </mxCell>
        <mxCell id="q6XPmWuKXVtPRQOwv97A-5" value="アプリケーション名" style="text;html=1;align=center;verticalAlign=middle;resizable=0;points=[];autosize=1;fontSize=23;fontStyle=1;fontColor=#FFFFFF;" parent="1" vertex="1">
          <mxGeometry x="110" y="386" width="220" height="30" as="geometry" />
        </mxCell>
        <mxCell id="q6XPmWuKXVtPRQOwv97A-9" value="ロゴ？" style="whiteSpace=wrap;html=1;aspect=fixed;fontSize=17;align=center;" parent="1" vertex="1">
          <mxGeometry x="374" y="406" width="120" height="120" as="geometry" />
        </mxCell>
        <mxCell id="q6XPmWuKXVtPRQOwv97A-10" value="" style="rounded=0;whiteSpace=wrap;html=1;fontSize=17;align=left;" parent="1" vertex="1">
          <mxGeometry x="200" y="461" width="120" height="10" as="geometry" />
        </mxCell>
        <mxCell id="q6XPmWuKXVtPRQOwv97A-11" value="" style="rounded=0;whiteSpace=wrap;html=1;fontSize=17;align=left;" parent="1" vertex="1">
          <mxGeometry x="200" y="476" width="120" height="10" as="geometry" />
        </mxCell>
        <mxCell id="q6XPmWuKXVtPRQOwv97A-13" value="ID" style="text;html=1;strokeColor=none;fillColor=none;align=right;verticalAlign=middle;whiteSpace=wrap;rounded=0;fontSize=11;fontColor=#FFFFFF;" parent="1" vertex="1">
          <mxGeometry x="150" y="461" width="40" height="15" as="geometry" />
        </mxCell>
        <mxCell id="q6XPmWuKXVtPRQOwv97A-14" value="Pass" style="text;html=1;strokeColor=none;fillColor=none;align=right;verticalAlign=middle;whiteSpace=wrap;rounded=0;fontSize=11;fontColor=#FFFFFF;" parent="1" vertex="1">
          <mxGeometry x="150" y="471" width="40" height="15" as="geometry" />
        </mxCell>
        <mxCell id="q6XPmWuKXVtPRQOwv97A-15" value="&lt;font color=&quot;#ffffff&quot; style=&quot;font-size: 15px;&quot;&gt;2DB3FF&lt;/font&gt;" style="rounded=0;whiteSpace=wrap;html=1;fontSize=15;align=right;fillColor=#2DB3FF;" parent="1" vertex="1">
          <mxGeometry x="39" y="10" width="120" height="60" as="geometry" />
        </mxCell>
        <mxCell id="q6XPmWuKXVtPRQOwv97A-16" value="&lt;font color=&quot;#ffffff&quot; style=&quot;font-size: 15px;&quot;&gt;6945C1&lt;/font&gt;" style="rounded=0;whiteSpace=wrap;html=1;fontSize=15;align=right;fillColor=#6945C1;" parent="1" vertex="1">
          <mxGeometry x="169" y="10" width="120" height="60" as="geometry" />
        </mxCell>
        <mxCell id="q6XPmWuKXVtPRQOwv97A-17" value="&lt;font color=&quot;#ffffff&quot; style=&quot;font-size: 15px;&quot;&gt;00D4C9&lt;/font&gt;" style="rounded=0;whiteSpace=wrap;html=1;fontSize=15;align=right;fillColor=#00D4C9;" parent="1" vertex="1">
          <mxGeometry x="299" y="10" width="120" height="60" as="geometry" />
        </mxCell>
        <mxCell id="q6XPmWuKXVtPRQOwv97A-18" value="&lt;font color=&quot;#ffffff&quot; style=&quot;font-size: 15px;&quot;&gt;EDAE00&lt;/font&gt;" style="rounded=0;whiteSpace=wrap;html=1;fontSize=15;align=right;fillColor=#EDAE00;" parent="1" vertex="1">
          <mxGeometry x="430" y="10" width="120" height="60" as="geometry" />
        </mxCell>
        <mxCell id="q6XPmWuKXVtPRQOwv97A-19" value="" style="endArrow=classic;html=1;fontSize=15;fontColor=#FFFFFF;exitX=0.5;exitY=1;exitDx=0;exitDy=0;entryX=0.5;entryY=0;entryDx=0;entryDy=0;" parent="1" source="q6XPmWuKXVtPRQOwv97A-35" target="q6XPmWuKXVtPRQOwv97A-21" edge="1">
          <mxGeometry width="50" height="50" relative="1" as="geometry">
            <mxPoint x="289.9999999999998" y="516" as="sourcePoint" />
            <mxPoint x="290" y="740" as="targetPoint" />
            <Array as="points">
              <mxPoint x="290" y="680" />
              <mxPoint x="95" y="680" />
            </Array>
          </mxGeometry>
        </mxCell>
        <mxCell id="q6XPmWuKXVtPRQOwv97A-20" value="" style="rounded=0;whiteSpace=wrap;html=1;" parent="1" vertex="1">
          <mxGeometry x="40" y="780" width="544.17" height="710" as="geometry" />
        </mxCell>
        <mxCell id="q6XPmWuKXVtPRQOwv97A-21" value="/stamp" style="text;html=1;strokeColor=none;fillColor=none;align=left;verticalAlign=middle;whiteSpace=wrap;rounded=0;fontSize=30;" parent="1" vertex="1">
          <mxGeometry x="40" y="740" width="110" height="40" as="geometry" />
        </mxCell>
        <mxCell id="q6XPmWuKXVtPRQOwv97A-22" value="&lt;font style=&quot;font-size: 27px&quot; color=&quot;#ffffff&quot;&gt;&amp;nbsp; &amp;nbsp;ヘッダー&lt;/font&gt;" style="rounded=0;whiteSpace=wrap;html=1;align=left;fillColor=#6945C1;" parent="1" vertex="1">
          <mxGeometry x="40" y="780" width="544.17" height="50" as="geometry" />
        </mxCell>
        <mxCell id="q6XPmWuKXVtPRQOwv97A-23" value="" style="rounded=0;whiteSpace=wrap;html=1;fillColor=#6945C1;" parent="1" vertex="1">
          <mxGeometry x="39" y="160" width="544.17" height="50" as="geometry" />
        </mxCell>
        <mxCell id="q6XPmWuKXVtPRQOwv97A-24" value="/ヘッダー" style="text;html=1;strokeColor=none;fillColor=none;align=left;verticalAlign=middle;whiteSpace=wrap;rounded=0;fontSize=30;" parent="1" vertex="1">
          <mxGeometry x="43.5" y="120" width="431" height="40" as="geometry" />
        </mxCell>
        <mxCell id="q6XPmWuKXVtPRQOwv97A-25" value="アプリ名" style="text;html=1;align=center;verticalAlign=middle;resizable=0;points=[];autosize=1;fontSize=25;fontColor=#FFFFFF;" parent="1" vertex="1">
          <mxGeometry x="39" y="165" width="120" height="40" as="geometry" />
        </mxCell>
        <mxCell id="q6XPmWuKXVtPRQOwv97A-26" value="打刻一覧" style="text;html=1;align=center;verticalAlign=middle;resizable=0;points=[];autosize=1;fontSize=15;fontColor=#FFFFFF;" parent="1" vertex="1">
          <mxGeometry x="299" y="175" width="80" height="20" as="geometry" />
        </mxCell>
        <mxCell id="q6XPmWuKXVtPRQOwv97A-27" value="シフトセット" style="text;html=1;align=center;verticalAlign=middle;resizable=0;points=[];autosize=1;fontSize=15;fontColor=#FFFFFF;" parent="1" vertex="1">
          <mxGeometry x="370" y="175" width="110" height="20" as="geometry" />
        </mxCell>
        <mxCell id="q6XPmWuKXVtPRQOwv97A-31" value="&lt;font color=&quot;#000000&quot;&gt;現在の状態&lt;/font&gt;" style="text;html=1;align=center;verticalAlign=middle;resizable=0;points=[];autosize=1;fontSize=15;fontColor=#FFFFFF;" parent="1" vertex="1">
          <mxGeometry x="230" y="840" width="90" height="20" as="geometry" />
        </mxCell>
        <mxCell id="q6XPmWuKXVtPRQOwv97A-32" value="&lt;font color=&quot;#000000&quot;&gt;出勤予定&lt;/font&gt;" style="text;html=1;align=center;verticalAlign=middle;resizable=0;points=[];autosize=1;fontSize=15;fontColor=#FFFFFF;" parent="1" vertex="1">
          <mxGeometry x="410" y="840" width="80" height="20" as="geometry" />
        </mxCell>
        <mxCell id="q6XPmWuKXVtPRQOwv97A-33" value="&lt;font color=&quot;#000000&quot;&gt;退勤予定&lt;/font&gt;" style="text;html=1;align=center;verticalAlign=middle;resizable=0;points=[];autosize=1;fontSize=15;fontColor=#FFFFFF;" parent="1" vertex="1">
          <mxGeometry x="490" y="840" width="80" height="20" as="geometry" />
        </mxCell>
        <mxCell id="q6XPmWuKXVtPRQOwv97A-35" value="&lt;font color=&quot;#2db3ff&quot; style=&quot;font-size: 11px&quot;&gt;ログイン&lt;/font&gt;" style="rounded=0;whiteSpace=wrap;html=1;fontSize=15;fontColor=#FFFFFF;align=center;strokeColor=none;fillColor=#FFFFFF;fontStyle=1" parent="1" vertex="1">
          <mxGeometry x="260" y="500" width="60" height="20" as="geometry" />
        </mxCell>
        <mxCell id="q6XPmWuKXVtPRQOwv97A-36" value="出勤打刻" style="whiteSpace=wrap;html=1;fontSize=15;fontColor=#FFFFFF;align=center;strokeColor=none;fillColor=#2DB3FF;" parent="1" vertex="1">
          <mxGeometry x="350" y="940" width="120" height="40" as="geometry" />
        </mxCell>
        <mxCell id="q6XPmWuKXVtPRQOwv97A-37" value="&lt;font color=&quot;#00d4c9&quot;&gt;出勤中&lt;/font&gt;" style="text;html=1;align=center;verticalAlign=middle;resizable=0;points=[];autosize=1;fontSize=15;fontColor=#FFFFFF;fontStyle=1" parent="1" vertex="1">
          <mxGeometry x="269" y="860" width="60" height="20" as="geometry" />
        </mxCell>
        <mxCell id="q6XPmWuKXVtPRQOwv97A-38" value="&lt;font color=&quot;#000000&quot;&gt;今日のシフト&lt;/font&gt;" style="text;html=1;align=center;verticalAlign=middle;resizable=0;points=[];autosize=1;fontSize=15;fontColor=#FFFFFF;" parent="1" vertex="1">
          <mxGeometry x="309" y="840" width="110" height="20" as="geometry" />
        </mxCell>
        <mxCell id="q6XPmWuKXVtPRQOwv97A-39" value="&lt;font color=&quot;#00d4c9&quot;&gt;AB&lt;/font&gt;" style="text;html=1;align=center;verticalAlign=middle;resizable=0;points=[];autosize=1;fontSize=15;fontColor=#FFFFFF;fontStyle=1" parent="1" vertex="1">
          <mxGeometry x="355" y="860" width="40" height="20" as="geometry" />
        </mxCell>
        <mxCell id="q6XPmWuKXVtPRQOwv97A-40" value="&lt;font color=&quot;#00d4c9&quot;&gt;08:30&lt;/font&gt;" style="text;html=1;align=center;verticalAlign=middle;resizable=0;points=[];autosize=1;fontSize=15;fontColor=#FFFFFF;fontStyle=1" parent="1" vertex="1">
          <mxGeometry x="425" y="860" width="50" height="20" as="geometry" />
        </mxCell>
        <mxCell id="q6XPmWuKXVtPRQOwv97A-41" value="&lt;font color=&quot;#00d4c9&quot;&gt;17:30&lt;/font&gt;" style="text;html=1;align=center;verticalAlign=middle;resizable=0;points=[];autosize=1;fontSize=15;fontColor=#FFFFFF;fontStyle=1" parent="1" vertex="1">
          <mxGeometry x="505" y="860" width="50" height="20" as="geometry" />
        </mxCell>
        <mxCell id="q6XPmWuKXVtPRQOwv97A-73" value="" style="group" parent="1" vertex="1" connectable="0">
          <mxGeometry x="120" y="880" width="161.86" height="161.86" as="geometry" />
        </mxCell>
        <mxCell id="q6XPmWuKXVtPRQOwv97A-64" value="" style="ellipse;whiteSpace=wrap;html=1;aspect=fixed;rotation=75;fillColor=none;strokeColor=none;" parent="q6XPmWuKXVtPRQOwv97A-73" vertex="1">
          <mxGeometry x="14.850931705519107" y="14.850931705519107" width="132.1581365889618" height="132.1581365889618" as="geometry" />
        </mxCell>
        <mxCell id="q6XPmWuKXVtPRQOwv97A-45" value="" style="endArrow=none;html=1;fontSize=15;fontColor=#FFFFFF;fontStyle=0;strokeWidth=2;exitX=0;exitY=1;exitDx=0;exitDy=0;entryX=1;entryY=0;entryDx=0;entryDy=0;" parent="q6XPmWuKXVtPRQOwv97A-73" edge="1">
          <mxGeometry width="50" height="50" relative="1" as="geometry">
            <mxPoint x="76.52472878036795" y="147.0090682944797" as="sourcePoint" />
            <mxPoint x="76.52472878036795" y="14.85093170552031" as="targetPoint" />
          </mxGeometry>
        </mxCell>
        <mxCell id="q6XPmWuKXVtPRQOwv97A-47" value="" style="endArrow=none;html=1;fontSize=15;fontColor=#FFFFFF;fontStyle=0;strokeWidth=2;exitX=0;exitY=0;exitDx=0;exitDy=0;entryX=1;entryY=1;entryDx=0;entryDy=0;" parent="q6XPmWuKXVtPRQOwv97A-73" edge="1">
          <mxGeometry width="50" height="50" relative="1" as="geometry">
            <mxPoint x="12.207768973741073" y="80.67449426926137" as="sourcePoint" />
            <mxPoint x="144.36590556270048" y="80.67449426926137" as="targetPoint" />
          </mxGeometry>
        </mxCell>
        <mxCell id="q6XPmWuKXVtPRQOwv97A-65" value="" style="endArrow=none;html=1;fontSize=15;fontColor=#FFFFFF;fontStyle=0;strokeWidth=2;exitX=0;exitY=1;exitDx=0;exitDy=0;entryX=1;entryY=0;entryDx=0;entryDy=0;" parent="q6XPmWuKXVtPRQOwv97A-73" source="q6XPmWuKXVtPRQOwv97A-64" target="q6XPmWuKXVtPRQOwv97A-64" edge="1">
          <mxGeometry width="50" height="50" relative="1" as="geometry">
            <mxPoint x="-130.52301854233886" y="73.0005118046623" as="sourcePoint" />
            <mxPoint x="-2.7701531730091316" y="39.52045053545864" as="targetPoint" />
          </mxGeometry>
        </mxCell>
        <mxCell id="q6XPmWuKXVtPRQOwv97A-66" value="" style="endArrow=none;html=1;fontSize=15;fontColor=#FFFFFF;fontStyle=0;strokeWidth=2;exitX=0;exitY=0;exitDx=0;exitDy=0;entryX=1;entryY=1;entryDx=0;entryDy=0;" parent="q6XPmWuKXVtPRQOwv97A-73" source="q6XPmWuKXVtPRQOwv97A-64" target="q6XPmWuKXVtPRQOwv97A-64" edge="1">
          <mxGeometry width="50" height="50" relative="1" as="geometry">
            <mxPoint x="-82.94608937031262" y="-7.175424392641192" as="sourcePoint" />
            <mxPoint x="-49.46602810110896" y="121.45849522061495" as="targetPoint" />
          </mxGeometry>
        </mxCell>
        <mxCell id="q6XPmWuKXVtPRQOwv97A-61" value="" style="endArrow=none;html=1;fontSize=15;fontColor=#FFFFFF;fontStyle=0;strokeWidth=2;exitX=0;exitY=1;exitDx=0;exitDy=0;entryX=1;entryY=0;entryDx=0;entryDy=0;" parent="q6XPmWuKXVtPRQOwv97A-73" edge="1">
          <mxGeometry width="50" height="50" relative="1" as="geometry">
            <mxPoint x="21.104738178990683" y="111.76689853742403" as="sourcePoint" />
            <mxPoint x="135.55704178184342" y="45.68783024294412" as="targetPoint" />
          </mxGeometry>
        </mxCell>
        <mxCell id="q6XPmWuKXVtPRQOwv97A-62" value="" style="endArrow=none;html=1;fontSize=15;fontColor=#FFFFFF;fontStyle=0;strokeWidth=2;exitX=0;exitY=0;exitDx=0;exitDy=0;entryX=1;entryY=1;entryDx=0;entryDy=0;" parent="q6XPmWuKXVtPRQOwv97A-73" edge="1">
          <mxGeometry width="50" height="50" relative="1" as="geometry">
            <mxPoint x="45.24730312098072" y="23.65979548637736" as="sourcePoint" />
            <mxPoint x="111.32637141546083" y="138.1120990892301" as="targetPoint" />
          </mxGeometry>
        </mxCell>
        <mxCell id="q6XPmWuKXVtPRQOwv97A-78" value="" style="group" parent="q6XPmWuKXVtPRQOwv97A-73" vertex="1" connectable="0">
          <mxGeometry x="21.018311413003993" y="23.66147414478323" width="114.53705171043354" height="114.53705171043354" as="geometry" />
        </mxCell>
        <mxCell id="q6XPmWuKXVtPRQOwv97A-69" value="" style="ellipse;whiteSpace=wrap;html=1;aspect=fixed;fillColor=#ffffff;fontSize=15;fontColor=#FFFFFF;align=center;strokeColor=none;" parent="q6XPmWuKXVtPRQOwv97A-78" vertex="1">
          <mxGeometry width="114.53705171043354" height="114.53705171043354" as="geometry" />
        </mxCell>
        <mxCell id="q6XPmWuKXVtPRQOwv97A-75" value="" style="endArrow=none;html=1;strokeWidth=2;fontSize=15;fontColor=#FFFFFF;entryX=0.663;entryY=0.024;entryDx=0;entryDy=0;entryPerimeter=0;" parent="q6XPmWuKXVtPRQOwv97A-78" target="q6XPmWuKXVtPRQOwv97A-69" edge="1">
          <mxGeometry width="50" height="50" relative="1" as="geometry">
            <mxPoint x="58.27292769329288" y="64.44030740077775" as="sourcePoint" />
            <mxPoint x="102.32563988961348" y="20.38759520445716" as="targetPoint" />
          </mxGeometry>
        </mxCell>
        <mxCell id="q6XPmWuKXVtPRQOwv97A-76" value="" style="endArrow=none;html=1;strokeWidth=2;fontSize=15;fontColor=#FFFFFF;" parent="q6XPmWuKXVtPRQOwv97A-78" edge="1">
          <mxGeometry width="50" height="50" relative="1" as="geometry">
            <mxPoint x="58.27292769329288" y="64.44030740077775" as="sourcePoint" />
            <mxPoint x="84.70455501108523" y="38.0086800829854" as="targetPoint" />
          </mxGeometry>
        </mxCell>
        <mxCell id="q6XPmWuKXVtPRQOwv97A-77" value="" style="endArrow=none;html=1;strokeWidth=2;fontSize=15;fontColor=#FFFFFF;dashed=1;exitX=0;exitY=0.5;exitDx=0;exitDy=0;" parent="1" source="q6XPmWuKXVtPRQOwv97A-20" edge="1">
          <mxGeometry width="50" height="50" relative="1" as="geometry">
            <mxPoint x="443.16999999999996" y="1134.58" as="sourcePoint" />
            <mxPoint x="583.17" y="1134.58" as="targetPoint" />
          </mxGeometry>
        </mxCell>
        <mxCell id="q6XPmWuKXVtPRQOwv97A-87" value="" style="whiteSpace=wrap;html=1;aspect=fixed;strokeColor=#000000;fillColor=#ffffff;fontSize=15;fontColor=#FFFFFF;align=center;" parent="1" vertex="1">
          <mxGeometry x="278.58000000000004" y="1060" width="65" height="65" as="geometry" />
        </mxCell>
        <mxCell id="q6XPmWuKXVtPRQOwv97A-93" value="" style="whiteSpace=wrap;html=1;aspect=fixed;strokeColor=#000000;fillColor=#ffffff;fontSize=15;fontColor=#FFFFFF;align=center;" parent="1" vertex="1">
          <mxGeometry x="354.00000000000006" y="1060" width="65" height="65" as="geometry" />
        </mxCell>
        <mxCell id="q6XPmWuKXVtPRQOwv97A-94" value="" style="whiteSpace=wrap;html=1;aspect=fixed;strokeColor=#000000;fillColor=#ffffff;fontSize=15;fontColor=#FFFFFF;align=center;" parent="1" vertex="1">
          <mxGeometry x="429.00000000000006" y="1060" width="65" height="65" as="geometry" />
        </mxCell>
        <mxCell id="q6XPmWuKXVtPRQOwv97A-95" value="" style="whiteSpace=wrap;html=1;aspect=fixed;strokeColor=#000000;fontSize=15;fontColor=#FFFFFF;align=center;fillColor=#6945C1;" parent="1" vertex="1">
          <mxGeometry x="505.00000000000006" y="1060" width="65" height="65" as="geometry" />
        </mxCell>
        <mxCell id="q6XPmWuKXVtPRQOwv97A-96" value="" style="whiteSpace=wrap;html=1;aspect=fixed;fillColor=#ffffff;fontSize=15;fontColor=#FFFFFF;align=center;strokeColor=#EDAE00;" parent="1" vertex="1">
          <mxGeometry x="204" y="1060" width="65" height="65" as="geometry" />
        </mxCell>
        <mxCell id="q6XPmWuKXVtPRQOwv97A-97" value="" style="whiteSpace=wrap;html=1;aspect=fixed;strokeColor=#000000;fillColor=#ffffff;fontSize=15;fontColor=#FFFFFF;align=center;" parent="1" vertex="1">
          <mxGeometry x="125" y="1060" width="65" height="65" as="geometry" />
        </mxCell>
        <mxCell id="q6XPmWuKXVtPRQOwv97A-98" value="" style="whiteSpace=wrap;html=1;aspect=fixed;strokeColor=#000000;fontSize=15;fontColor=#FFFFFF;align=center;fillColor=#6945C1;" parent="1" vertex="1">
          <mxGeometry x="45" y="1060" width="65" height="65" as="geometry" />
        </mxCell>
        <mxCell id="q6XPmWuKXVtPRQOwv97A-99" value="9/5 Sat" style="text;html=1;align=left;verticalAlign=middle;resizable=0;points=[];autosize=1;fontSize=15;fontColor=#FFFFFF;" parent="1" vertex="1">
          <mxGeometry x="505" y="1060" width="60" height="20" as="geometry" />
        </mxCell>
        <mxCell id="q6XPmWuKXVtPRQOwv97A-100" value="9/4 Fri" style="text;html=1;align=left;verticalAlign=middle;resizable=0;points=[];autosize=1;fontSize=15;fontColor=#33001A;" parent="1" vertex="1">
          <mxGeometry x="431" y="1060" width="60" height="20" as="geometry" />
        </mxCell>
        <mxCell id="q6XPmWuKXVtPRQOwv97A-101" value="9/3 Thr" style="text;html=1;align=left;verticalAlign=middle;resizable=0;points=[];autosize=1;fontSize=15;fontColor=#33001A;" parent="1" vertex="1">
          <mxGeometry x="355" y="1060" width="60" height="20" as="geometry" />
        </mxCell>
        <mxCell id="q6XPmWuKXVtPRQOwv97A-102" value="9/2 Wed" style="text;html=1;align=left;verticalAlign=middle;resizable=0;points=[];autosize=1;fontSize=15;fontColor=#33001A;" parent="1" vertex="1">
          <mxGeometry x="278.58" y="1060" width="70" height="20" as="geometry" />
        </mxCell>
        <mxCell id="q6XPmWuKXVtPRQOwv97A-103" value="9/1 Tue&lt;span style=&quot;color: rgba(0 , 0 , 0 , 0) ; font-family: monospace ; font-size: 0px&quot;&gt;3CmxGraphModel%3E%3Croot%3E%3CmxCell%20id%3D%220%22%2F%3E%3CmxCell%20id%3D%221%22%20parent%3D%220%22%2F%3E%3CmxCell%20id%3D%222%22%20value%3D%229%2F4%22%20style%3D%22text%3Bhtml%3D1%3Balign%3Dleft%3BverticalAlign%3Dmiddle%3Bresizable%3D0%3Bpoints%3D%5B%5D%3Bautosize%3D1%3BfontSize%3D15%3BfontColor%3D%2333001A%3B%22%20vertex%3D%221%22%20parent%3D%221%22%3E%3CmxGeometry%20x%3D%22431%22%20y%3D%221060%22%20width%3D%2240%22%20height%3D%2220%22%20as%3D%22geometry%22%2F%3E%3C%2FmxCell%3E%3C%2Froot%3E%3C%2FmxGraphModel%32&lt;/span&gt;" style="text;html=1;align=left;verticalAlign=middle;resizable=0;points=[];autosize=1;fontSize=15;fontColor=#33001A;" parent="1" vertex="1">
          <mxGeometry x="204" y="1055" width="70" height="30" as="geometry" />
        </mxCell>
        <mxCell id="q6XPmWuKXVtPRQOwv97A-105" value="8/31 Mon" style="text;html=1;align=left;verticalAlign=middle;resizable=0;points=[];autosize=1;fontSize=15;fontColor=#33001A;" parent="1" vertex="1">
          <mxGeometry x="125" y="1060" width="80" height="20" as="geometry" />
        </mxCell>
        <mxCell id="q6XPmWuKXVtPRQOwv97A-106" value="8/30 Sun" style="text;html=1;align=left;verticalAlign=middle;resizable=0;points=[];autosize=1;fontSize=15;fontColor=#FFFFFF;" parent="1" vertex="1">
          <mxGeometry x="45" y="1060" width="80" height="20" as="geometry" />
        </mxCell>
        <mxCell id="q6XPmWuKXVtPRQOwv97A-107" value="&lt;font style=&quot;font-size: 31px&quot;&gt;@&lt;/font&gt;" style="text;html=1;align=center;verticalAlign=middle;resizable=0;points=[];autosize=1;fontSize=15;fontColor=#00D4C9;" parent="1" vertex="1">
          <mxGeometry x="132.5" y="1085" width="50" height="30" as="geometry" />
        </mxCell>
        <mxCell id="q6XPmWuKXVtPRQOwv97A-108" value="&lt;font style=&quot;font-size: 31px&quot;&gt;AB&lt;/font&gt;" style="text;html=1;align=center;verticalAlign=middle;resizable=0;points=[];autosize=1;fontSize=15;fontColor=#00D4C9;" parent="1" vertex="1">
          <mxGeometry x="206.5" y="1085" width="60" height="30" as="geometry" />
        </mxCell>
        <mxCell id="q6XPmWuKXVtPRQOwv97A-109" value="&lt;font style=&quot;font-size: 31px&quot;&gt;BC&lt;/font&gt;" style="text;html=1;align=center;verticalAlign=middle;resizable=0;points=[];autosize=1;fontSize=15;fontColor=#00D4C9;" parent="1" vertex="1">
          <mxGeometry x="281.08" y="1085" width="60" height="30" as="geometry" />
        </mxCell>
        <mxCell id="q6XPmWuKXVtPRQOwv97A-110" value="&lt;font style=&quot;font-size: 31px&quot;&gt;明&lt;/font&gt;" style="text;html=1;align=center;verticalAlign=middle;resizable=0;points=[];autosize=1;fontSize=15;fontColor=#00D4C9;" parent="1" vertex="1">
          <mxGeometry x="361.5" y="1085" width="50" height="30" as="geometry" />
        </mxCell>
        <mxCell id="q6XPmWuKXVtPRQOwv97A-111" value="&lt;font style=&quot;font-size: 31px&quot;&gt;@&lt;/font&gt;" style="text;html=1;align=center;verticalAlign=middle;resizable=0;points=[];autosize=1;fontSize=15;fontColor=#00D4C9;" parent="1" vertex="1">
          <mxGeometry x="512.5" y="1085" width="50" height="30" as="geometry" />
        </mxCell>
        <mxCell id="q6XPmWuKXVtPRQOwv97A-112" value="" style="endArrow=none;html=1;strokeWidth=3;fontSize=15;fontColor=#00D4C9;rounded=0;" parent="1" edge="1">
          <mxGeometry width="50" height="50" relative="1" as="geometry">
            <mxPoint x="535" y="1400" as="sourcePoint" />
            <mxPoint x="105" y="1200" as="targetPoint" />
            <Array as="points">
              <mxPoint x="105" y="1400" />
            </Array>
          </mxGeometry>
        </mxCell>
        <mxCell id="q6XPmWuKXVtPRQOwv97A-113" value="&lt;font color=&quot;#000000&quot;&gt;残業時間&lt;/font&gt;" style="text;html=1;align=center;verticalAlign=middle;resizable=0;points=[];autosize=1;fontSize=15;fontColor=#FFFFFF;" parent="1" vertex="1">
          <mxGeometry x="105" y="1160" width="80" height="20" as="geometry" />
        </mxCell>
        <mxCell id="q6XPmWuKXVtPRQOwv97A-114" value="" style="endArrow=none;html=1;strokeWidth=3;fontSize=15;fontColor=#00D4C9;rounded=0;strokeColor=#00D4C9;" parent="1" edge="1">
          <mxGeometry width="50" height="50" relative="1" as="geometry">
            <mxPoint x="125" y="1340" as="sourcePoint" />
            <mxPoint x="525" y="1340" as="targetPoint" />
            <Array as="points">
              <mxPoint x="165" y="1230" />
              <mxPoint x="205" y="1260" />
              <mxPoint x="245" y="1300" />
              <mxPoint x="285" y="1260" />
              <mxPoint x="365" y="1240" />
              <mxPoint x="405" y="1320" />
              <mxPoint x="445" y="1290" />
              <mxPoint x="485" y="1370" />
            </Array>
          </mxGeometry>
        </mxCell>
        <mxCell id="q6XPmWuKXVtPRQOwv97A-115" value="&lt;font color=&quot;#ffffff&quot;&gt;期間選択　　▼&lt;/font&gt;" style="rounded=0;whiteSpace=wrap;html=1;fontSize=15;fontColor=#00D4C9;align=right;strokeColor=#33001A;fillColor=#2DB3FF;" parent="1" vertex="1">
          <mxGeometry x="370" y="1160" width="160" height="20" as="geometry" />
        </mxCell>
        <mxCell id="q6XPmWuKXVtPRQOwv97A-116" value="" style="rounded=0;whiteSpace=wrap;html=1;" parent="1" vertex="1">
          <mxGeometry x="760" y="780" width="544.17" height="356" as="geometry" />
        </mxCell>
        <mxCell id="q6XPmWuKXVtPRQOwv97A-117" value="/shiftset" style="text;html=1;strokeColor=none;fillColor=none;align=left;verticalAlign=middle;whiteSpace=wrap;rounded=0;fontSize=30;" parent="1" vertex="1">
          <mxGeometry x="760" y="740" width="431" height="40" as="geometry" />
        </mxCell>
        <mxCell id="q6XPmWuKXVtPRQOwv97A-119" value="&lt;font style=&quot;font-size: 27px&quot; color=&quot;#ffffff&quot;&gt;&amp;nbsp; &amp;nbsp;ヘッダー&lt;/font&gt;" style="rounded=0;whiteSpace=wrap;html=1;align=left;fillColor=#6945C1;" parent="1" vertex="1">
          <mxGeometry x="760" y="780" width="544.17" height="50" as="geometry" />
        </mxCell>
        <mxCell id="q6XPmWuKXVtPRQOwv97A-120" value="シフト名" style="text;html=1;strokeColor=none;fillColor=none;align=center;verticalAlign=middle;whiteSpace=wrap;rounded=0;fontSize=15;fontColor=#33001A;" parent="1" vertex="1">
          <mxGeometry x="760" y="880" width="90" height="20" as="geometry" />
        </mxCell>
        <mxCell id="q6XPmWuKXVtPRQOwv97A-121" value="出勤時刻" style="text;html=1;strokeColor=none;fillColor=none;align=center;verticalAlign=middle;whiteSpace=wrap;rounded=0;fontSize=15;fontColor=#33001A;" parent="1" vertex="1">
          <mxGeometry x="850" y="880" width="90" height="20" as="geometry" />
        </mxCell>
        <mxCell id="q6XPmWuKXVtPRQOwv97A-122" value="退勤時刻" style="text;html=1;strokeColor=none;fillColor=none;align=center;verticalAlign=middle;whiteSpace=wrap;rounded=0;fontSize=15;fontColor=#33001A;" parent="1" vertex="1">
          <mxGeometry x="930" y="880" width="90" height="20" as="geometry" />
        </mxCell>
        <mxCell id="q6XPmWuKXVtPRQOwv97A-123" value="休憩時間合計" style="text;html=1;strokeColor=none;fillColor=none;align=center;verticalAlign=middle;whiteSpace=wrap;rounded=0;fontSize=15;fontColor=#33001A;" parent="1" vertex="1">
          <mxGeometry x="1020" y="880" width="110" height="20" as="geometry" />
        </mxCell>
        <mxCell id="q6XPmWuKXVtPRQOwv97A-124" value="深夜休憩時間" style="text;html=1;strokeColor=none;fillColor=none;align=center;verticalAlign=middle;whiteSpace=wrap;rounded=0;fontSize=15;fontColor=#33001A;" parent="1" vertex="1">
          <mxGeometry x="1130" y="880" width="119" height="20" as="geometry" />
        </mxCell>
        <mxCell id="q6XPmWuKXVtPRQOwv97A-125" value="＠" style="text;html=1;strokeColor=none;fillColor=none;align=center;verticalAlign=middle;whiteSpace=wrap;rounded=0;fontSize=15;fontColor=#33001A;" parent="1" vertex="1">
          <mxGeometry x="785" y="910" width="40" height="20" as="geometry" />
        </mxCell>
        <mxCell id="q6XPmWuKXVtPRQOwv97A-126" value="08:30" style="text;html=1;strokeColor=none;fillColor=none;align=center;verticalAlign=middle;whiteSpace=wrap;rounded=0;fontSize=15;fontColor=#33001A;" parent="1" vertex="1">
          <mxGeometry x="875" y="910" width="40" height="20" as="geometry" />
        </mxCell>
        <mxCell id="q6XPmWuKXVtPRQOwv97A-127" value="17:30" style="text;html=1;strokeColor=none;fillColor=none;align=center;verticalAlign=middle;whiteSpace=wrap;rounded=0;fontSize=15;fontColor=#33001A;" parent="1" vertex="1">
          <mxGeometry x="955" y="910" width="40" height="20" as="geometry" />
        </mxCell>
        <mxCell id="q6XPmWuKXVtPRQOwv97A-128" value="01:00" style="text;html=1;strokeColor=none;fillColor=none;align=center;verticalAlign=middle;whiteSpace=wrap;rounded=0;fontSize=15;fontColor=#33001A;" parent="1" vertex="1">
          <mxGeometry x="1055" y="910" width="40" height="20" as="geometry" />
        </mxCell>
        <mxCell id="q6XPmWuKXVtPRQOwv97A-129" value="00:00" style="text;html=1;strokeColor=none;fillColor=none;align=center;verticalAlign=middle;whiteSpace=wrap;rounded=0;fontSize=15;fontColor=#33001A;" parent="1" vertex="1">
          <mxGeometry x="1169.5" y="910" width="40" height="20" as="geometry" />
        </mxCell>
        <mxCell id="q6XPmWuKXVtPRQOwv97A-130" value="AB" style="text;html=1;strokeColor=none;fillColor=none;align=center;verticalAlign=middle;whiteSpace=wrap;rounded=0;fontSize=15;fontColor=#33001A;" parent="1" vertex="1">
          <mxGeometry x="785" y="942" width="40" height="20" as="geometry" />
        </mxCell>
        <mxCell id="q6XPmWuKXVtPRQOwv97A-131" value="08:30" style="text;html=1;strokeColor=none;fillColor=none;align=center;verticalAlign=middle;whiteSpace=wrap;rounded=0;fontSize=15;fontColor=#33001A;" parent="1" vertex="1">
          <mxGeometry x="875" y="942" width="40" height="20" as="geometry" />
        </mxCell>
        <mxCell id="q6XPmWuKXVtPRQOwv97A-132" value="20:30" style="text;html=1;strokeColor=none;fillColor=none;align=center;verticalAlign=middle;whiteSpace=wrap;rounded=0;fontSize=15;fontColor=#33001A;" parent="1" vertex="1">
          <mxGeometry x="955" y="942" width="40" height="20" as="geometry" />
        </mxCell>
        <mxCell id="q6XPmWuKXVtPRQOwv97A-133" value="01:30" style="text;html=1;strokeColor=none;fillColor=none;align=center;verticalAlign=middle;whiteSpace=wrap;rounded=0;fontSize=15;fontColor=#33001A;" parent="1" vertex="1">
          <mxGeometry x="1055" y="942" width="40" height="20" as="geometry" />
        </mxCell>
        <mxCell id="q6XPmWuKXVtPRQOwv97A-134" value="00:00" style="text;html=1;strokeColor=none;fillColor=none;align=center;verticalAlign=middle;whiteSpace=wrap;rounded=0;fontSize=15;fontColor=#33001A;" parent="1" vertex="1">
          <mxGeometry x="1169.5" y="942" width="40" height="20" as="geometry" />
        </mxCell>
        <mxCell id="q6XPmWuKXVtPRQOwv97A-135" value="BC" style="text;html=1;strokeColor=none;fillColor=none;align=center;verticalAlign=middle;whiteSpace=wrap;rounded=0;fontSize=15;fontColor=#33001A;" parent="1" vertex="1">
          <mxGeometry x="785" y="974.93" width="40" height="20" as="geometry" />
        </mxCell>
        <mxCell id="q6XPmWuKXVtPRQOwv97A-136" value="20:30" style="text;html=1;strokeColor=none;fillColor=none;align=center;verticalAlign=middle;whiteSpace=wrap;rounded=0;fontSize=15;fontColor=#33001A;" parent="1" vertex="1">
          <mxGeometry x="875" y="974.93" width="40" height="20" as="geometry" />
        </mxCell>
        <mxCell id="q6XPmWuKXVtPRQOwv97A-137" value="24:00" style="text;html=1;strokeColor=none;fillColor=none;align=center;verticalAlign=middle;whiteSpace=wrap;rounded=0;fontSize=15;fontColor=#33001A;" parent="1" vertex="1">
          <mxGeometry x="955" y="974.93" width="40" height="20" as="geometry" />
        </mxCell>
        <mxCell id="q6XPmWuKXVtPRQOwv97A-138" value="00:00" style="text;html=1;strokeColor=none;fillColor=none;align=center;verticalAlign=middle;whiteSpace=wrap;rounded=0;fontSize=15;fontColor=#33001A;" parent="1" vertex="1">
          <mxGeometry x="1055" y="974.93" width="40" height="20" as="geometry" />
        </mxCell>
        <mxCell id="q6XPmWuKXVtPRQOwv97A-139" value="00:00" style="text;html=1;strokeColor=none;fillColor=none;align=center;verticalAlign=middle;whiteSpace=wrap;rounded=0;fontSize=15;fontColor=#33001A;" parent="1" vertex="1">
          <mxGeometry x="1169.5" y="974.93" width="40" height="20" as="geometry" />
        </mxCell>
        <mxCell id="q6XPmWuKXVtPRQOwv97A-140" value="明" style="text;html=1;strokeColor=none;fillColor=none;align=center;verticalAlign=middle;whiteSpace=wrap;rounded=0;fontSize=15;fontColor=#33001A;" parent="1" vertex="1">
          <mxGeometry x="785" y="1002.5" width="40" height="20" as="geometry" />
        </mxCell>
        <mxCell id="q6XPmWuKXVtPRQOwv97A-141" value="00:00" style="text;html=1;strokeColor=none;fillColor=none;align=center;verticalAlign=middle;whiteSpace=wrap;rounded=0;fontSize=15;fontColor=#33001A;" parent="1" vertex="1">
          <mxGeometry x="875" y="1002.5" width="40" height="20" as="geometry" />
        </mxCell>
        <mxCell id="q6XPmWuKXVtPRQOwv97A-142" value="08:30" style="text;html=1;strokeColor=none;fillColor=none;align=center;verticalAlign=middle;whiteSpace=wrap;rounded=0;fontSize=15;fontColor=#33001A;" parent="1" vertex="1">
          <mxGeometry x="955" y="1002.5" width="40" height="20" as="geometry" />
        </mxCell>
        <mxCell id="q6XPmWuKXVtPRQOwv97A-143" value="01:30" style="text;html=1;strokeColor=none;fillColor=none;align=center;verticalAlign=middle;whiteSpace=wrap;rounded=0;fontSize=15;fontColor=#33001A;" parent="1" vertex="1">
          <mxGeometry x="1055" y="1002.5" width="40" height="20" as="geometry" />
        </mxCell>
        <mxCell id="q6XPmWuKXVtPRQOwv97A-144" value="00:00" style="text;html=1;strokeColor=none;fillColor=none;align=center;verticalAlign=middle;whiteSpace=wrap;rounded=0;fontSize=15;fontColor=#33001A;" parent="1" vertex="1">
          <mxGeometry x="1169.5" y="1002.5" width="40" height="20" as="geometry" />
        </mxCell>
        <mxCell id="q6XPmWuKXVtPRQOwv97A-145" value="編集" style="rounded=0;whiteSpace=wrap;html=1;fillColor=#2DB3FF;fontSize=15;align=center;fontColor=#FFFFFF;strokeColor=none;" parent="1" vertex="1">
          <mxGeometry x="1241" y="907.5" width="55" height="25" as="geometry" />
        </mxCell>
        <mxCell id="q6XPmWuKXVtPRQOwv97A-146" value="編集" style="rounded=0;whiteSpace=wrap;html=1;fillColor=#2DB3FF;fontSize=15;align=center;fontColor=#FFFFFF;strokeColor=none;" parent="1" vertex="1">
          <mxGeometry x="1241" y="940" width="55" height="25" as="geometry" />
        </mxCell>
        <mxCell id="q6XPmWuKXVtPRQOwv97A-147" value="編集" style="rounded=0;whiteSpace=wrap;html=1;fillColor=#2DB3FF;fontSize=15;align=center;fontColor=#FFFFFF;strokeColor=none;" parent="1" vertex="1">
          <mxGeometry x="1241" y="970.93" width="55" height="25" as="geometry" />
        </mxCell>
        <mxCell id="q6XPmWuKXVtPRQOwv97A-148" value="編集" style="rounded=0;whiteSpace=wrap;html=1;fillColor=#2DB3FF;fontSize=15;align=center;fontColor=#FFFFFF;strokeColor=none;" parent="1" vertex="1">
          <mxGeometry x="1241" y="1000" width="55" height="25" as="geometry" />
        </mxCell>
        <mxCell id="q6XPmWuKXVtPRQOwv97A-150" value="" style="rounded=0;whiteSpace=wrap;html=1;" parent="1" vertex="1">
          <mxGeometry x="760" y="1260" width="544.17" height="356" as="geometry" />
        </mxCell>
        <mxCell id="q6XPmWuKXVtPRQOwv97A-151" value="/shiftset/edit?id=" style="text;html=1;strokeColor=none;fillColor=none;align=left;verticalAlign=middle;whiteSpace=wrap;rounded=0;fontSize=30;" parent="1" vertex="1">
          <mxGeometry x="760" y="1220" width="240" height="40" as="geometry" />
        </mxCell>
        <mxCell id="q6XPmWuKXVtPRQOwv97A-153" value="&lt;font style=&quot;font-size: 27px&quot; color=&quot;#ffffff&quot;&gt;&amp;nbsp; &amp;nbsp;ヘッダー&lt;/font&gt;" style="rounded=0;whiteSpace=wrap;html=1;align=left;fillColor=#6945C1;" parent="1" vertex="1">
          <mxGeometry x="760" y="1260" width="544.17" height="50" as="geometry" />
        </mxCell>
        <mxCell id="q6XPmWuKXVtPRQOwv97A-154" value="" style="endArrow=classic;html=1;strokeWidth=3;fontSize=15;fontColor=#FFFFFF;strokeColor=#33001A;exitX=1;exitY=0.5;exitDx=0;exitDy=0;entryX=1;entryY=0.5;entryDx=0;entryDy=0;" parent="1" source="q6XPmWuKXVtPRQOwv97A-148" target="q6XPmWuKXVtPRQOwv97A-151" edge="1">
          <mxGeometry width="50" height="50" relative="1" as="geometry">
            <mxPoint x="960" y="1300" as="sourcePoint" />
            <mxPoint x="1010" y="1240" as="targetPoint" />
            <Array as="points">
              <mxPoint x="1360" y="1013" />
              <mxPoint x="1360" y="1240" />
            </Array>
          </mxGeometry>
        </mxCell>
        <mxCell id="q6XPmWuKXVtPRQOwv97A-155" value="" style="rounded=0;whiteSpace=wrap;html=1;strokeColor=#33001A;fontSize=15;fontColor=#FFFFFF;align=center;fillColor=#FFFFFF;strokeWidth=2;" parent="1" vertex="1">
          <mxGeometry x="870" y="1430" width="130" height="20" as="geometry" />
        </mxCell>
        <mxCell id="q6XPmWuKXVtPRQOwv97A-156" value="シフト名" style="text;html=1;strokeColor=none;fillColor=none;align=right;verticalAlign=middle;whiteSpace=wrap;rounded=0;fontSize=15;fontColor=#33001A;" parent="1" vertex="1">
          <mxGeometry x="775" y="1430" width="80" height="20" as="geometry" />
        </mxCell>
        <mxCell id="q6XPmWuKXVtPRQOwv97A-157" value="" style="rounded=0;whiteSpace=wrap;html=1;strokeColor=#33001A;fontSize=15;fontColor=#FFFFFF;align=center;fillColor=#FFFFFF;strokeWidth=2;" parent="1" vertex="1">
          <mxGeometry x="870" y="1460" width="70" height="20" as="geometry" />
        </mxCell>
        <mxCell id="q6XPmWuKXVtPRQOwv97A-158" value="出勤時刻" style="text;html=1;strokeColor=none;fillColor=none;align=right;verticalAlign=middle;whiteSpace=wrap;rounded=0;fontSize=15;fontColor=#33001A;" parent="1" vertex="1">
          <mxGeometry x="775" y="1460" width="80" height="20" as="geometry" />
        </mxCell>
        <mxCell id="q6XPmWuKXVtPRQOwv97A-159" value="" style="rounded=0;whiteSpace=wrap;html=1;strokeColor=#33001A;fontSize=15;fontColor=#FFFFFF;align=center;fillColor=#FFFFFF;strokeWidth=2;" parent="1" vertex="1">
          <mxGeometry x="960" y="1460" width="70" height="20" as="geometry" />
        </mxCell>
        <mxCell id="q6XPmWuKXVtPRQOwv97A-160" value="時" style="text;html=1;strokeColor=none;fillColor=none;align=center;verticalAlign=middle;whiteSpace=wrap;rounded=0;fontSize=15;fontColor=#33001A;" parent="1" vertex="1">
          <mxGeometry x="935" y="1460" width="30" height="20" as="geometry" />
        </mxCell>
        <mxCell id="q6XPmWuKXVtPRQOwv97A-161" value="分" style="text;html=1;strokeColor=none;fillColor=none;align=center;verticalAlign=middle;whiteSpace=wrap;rounded=0;fontSize=15;fontColor=#33001A;" parent="1" vertex="1">
          <mxGeometry x="1027.0900000000001" y="1460" width="30" height="20" as="geometry" />
        </mxCell>
        <mxCell id="q6XPmWuKXVtPRQOwv97A-162" value="" style="rounded=0;whiteSpace=wrap;html=1;strokeColor=#33001A;fontSize=15;fontColor=#FFFFFF;align=center;fillColor=#FFFFFF;strokeWidth=2;" parent="1" vertex="1">
          <mxGeometry x="870" y="1490" width="70" height="20" as="geometry" />
        </mxCell>
        <mxCell id="q6XPmWuKXVtPRQOwv97A-163" value="退勤時刻" style="text;html=1;strokeColor=none;fillColor=none;align=right;verticalAlign=middle;whiteSpace=wrap;rounded=0;fontSize=15;fontColor=#33001A;" parent="1" vertex="1">
          <mxGeometry x="775" y="1490" width="80" height="20" as="geometry" />
        </mxCell>
        <mxCell id="q6XPmWuKXVtPRQOwv97A-164" value="" style="rounded=0;whiteSpace=wrap;html=1;strokeColor=#33001A;fontSize=15;fontColor=#FFFFFF;align=center;fillColor=#FFFFFF;strokeWidth=2;" parent="1" vertex="1">
          <mxGeometry x="960" y="1490" width="70" height="20" as="geometry" />
        </mxCell>
        <mxCell id="q6XPmWuKXVtPRQOwv97A-165" value="時" style="text;html=1;strokeColor=none;fillColor=none;align=center;verticalAlign=middle;whiteSpace=wrap;rounded=0;fontSize=15;fontColor=#33001A;" parent="1" vertex="1">
          <mxGeometry x="935" y="1490" width="30" height="20" as="geometry" />
        </mxCell>
        <mxCell id="q6XPmWuKXVtPRQOwv97A-166" value="分" style="text;html=1;strokeColor=none;fillColor=none;align=center;verticalAlign=middle;whiteSpace=wrap;rounded=0;fontSize=15;fontColor=#33001A;" parent="1" vertex="1">
          <mxGeometry x="1027.0900000000001" y="1490" width="30" height="20" as="geometry" />
        </mxCell>
        <mxCell id="q6XPmWuKXVtPRQOwv97A-167" value="" style="rounded=0;whiteSpace=wrap;html=1;strokeColor=#33001A;fontSize=15;fontColor=#FFFFFF;align=center;fillColor=#FFFFFF;strokeWidth=2;" parent="1" vertex="1">
          <mxGeometry x="870" y="1520" width="70" height="20" as="geometry" />
        </mxCell>
        <mxCell id="q6XPmWuKXVtPRQOwv97A-168" value="休憩時間合計" style="text;html=1;strokeColor=none;fillColor=none;align=right;verticalAlign=middle;whiteSpace=wrap;rounded=0;fontSize=15;fontColor=#33001A;" parent="1" vertex="1">
          <mxGeometry x="760" y="1520" width="100" height="20" as="geometry" />
        </mxCell>
        <mxCell id="q6XPmWuKXVtPRQOwv97A-169" value="" style="rounded=0;whiteSpace=wrap;html=1;strokeColor=#33001A;fontSize=15;fontColor=#FFFFFF;align=center;fillColor=#FFFFFF;strokeWidth=2;" parent="1" vertex="1">
          <mxGeometry x="980" y="1520" width="70" height="20" as="geometry" />
        </mxCell>
        <mxCell id="q6XPmWuKXVtPRQOwv97A-170" value="時間" style="text;html=1;strokeColor=none;fillColor=none;align=center;verticalAlign=middle;whiteSpace=wrap;rounded=0;fontSize=15;fontColor=#33001A;" parent="1" vertex="1">
          <mxGeometry x="940" y="1520" width="35" height="20" as="geometry" />
        </mxCell>
        <mxCell id="q6XPmWuKXVtPRQOwv97A-171" value="分" style="text;html=1;strokeColor=none;fillColor=none;align=center;verticalAlign=middle;whiteSpace=wrap;rounded=0;fontSize=15;fontColor=#33001A;" parent="1" vertex="1">
          <mxGeometry x="1047.0900000000001" y="1520" width="30" height="20" as="geometry" />
        </mxCell>
        <mxCell id="q6XPmWuKXVtPRQOwv97A-172" value="" style="rounded=0;whiteSpace=wrap;html=1;strokeColor=#33001A;fontSize=15;fontColor=#FFFFFF;align=center;fillColor=#FFFFFF;strokeWidth=2;" parent="1" vertex="1">
          <mxGeometry x="870" y="1550" width="70" height="20" as="geometry" />
        </mxCell>
        <mxCell id="q6XPmWuKXVtPRQOwv97A-173" value="深夜休憩時間" style="text;html=1;strokeColor=none;fillColor=none;align=right;verticalAlign=middle;whiteSpace=wrap;rounded=0;fontSize=15;fontColor=#33001A;" parent="1" vertex="1">
          <mxGeometry x="760" y="1550" width="100" height="20" as="geometry" />
        </mxCell>
        <mxCell id="q6XPmWuKXVtPRQOwv97A-174" value="" style="rounded=0;whiteSpace=wrap;html=1;strokeColor=#33001A;fontSize=15;fontColor=#FFFFFF;align=center;fillColor=#FFFFFF;strokeWidth=2;" parent="1" vertex="1">
          <mxGeometry x="980" y="1550" width="70" height="20" as="geometry" />
        </mxCell>
        <mxCell id="q6XPmWuKXVtPRQOwv97A-175" value="時間" style="text;html=1;strokeColor=none;fillColor=none;align=center;verticalAlign=middle;whiteSpace=wrap;rounded=0;fontSize=15;fontColor=#33001A;" parent="1" vertex="1">
          <mxGeometry x="940" y="1550" width="35" height="20" as="geometry" />
        </mxCell>
        <mxCell id="q6XPmWuKXVtPRQOwv97A-176" value="分" style="text;html=1;strokeColor=none;fillColor=none;align=center;verticalAlign=middle;whiteSpace=wrap;rounded=0;fontSize=15;fontColor=#33001A;" parent="1" vertex="1">
          <mxGeometry x="1047.0900000000001" y="1550" width="30" height="20" as="geometry" />
        </mxCell>
        <mxCell id="q6XPmWuKXVtPRQOwv97A-177" value="シフト内容を変更すると過去の勤怠状況(残業等)にも影響がでます。" style="rounded=0;whiteSpace=wrap;html=1;strokeWidth=2;fontSize=15;align=center;fillColor=#EDAE00;strokeColor=none;fontColor=#FFFFFF;verticalAlign=top;" parent="1" vertex="1">
          <mxGeometry x="780" y="1352.5" width="490" height="60" as="geometry" />
        </mxCell>
        <mxCell id="q6XPmWuKXVtPRQOwv97A-178" value="シフト作成" style="rounded=0;whiteSpace=wrap;html=1;fillColor=#2DB3FF;fontSize=15;align=center;fontColor=#FFFFFF;strokeColor=none;" parent="1" vertex="1">
          <mxGeometry x="1171" y="1380" width="79" height="25" as="geometry" />
        </mxCell>
        <mxCell id="q6XPmWuKXVtPRQOwv97A-179" value="&lt;font style=&quot;font-size: 9px&quot;&gt;- 1.0 Hr&lt;/font&gt;" style="ellipse;html=1;aspect=fixed;strokeWidth=2;fontSize=15;fontColor=#FFFFFF;align=center;fillColor=#2DB3FF;strokeColor=none;spacing=0;verticalAlign=middle;whiteSpace=wrap;textDirection=ltr;" parent="1" vertex="1">
          <mxGeometry x="1050" y="1440" width="40" height="40" as="geometry" />
        </mxCell>
        <mxCell id="q6XPmWuKXVtPRQOwv97A-180" value="&lt;font style=&quot;font-size: 9px&quot;&gt;+ 1.0 Hr&lt;/font&gt;" style="ellipse;html=1;aspect=fixed;strokeWidth=2;fontSize=15;fontColor=#FFFFFF;align=center;fillColor=#2DB3FF;strokeColor=none;spacing=0;verticalAlign=middle;whiteSpace=wrap;textDirection=ltr;" parent="1" vertex="1">
          <mxGeometry x="1090" y="1440" width="40" height="40" as="geometry" />
        </mxCell>
        <mxCell id="q6XPmWuKXVtPRQOwv97A-181" value="&lt;font style=&quot;font-size: 9px&quot;&gt;- 5 Min&lt;/font&gt;" style="ellipse;html=1;aspect=fixed;strokeWidth=2;fontSize=15;fontColor=#FFFFFF;align=center;fillColor=#2DB3FF;strokeColor=none;spacing=0;verticalAlign=middle;whiteSpace=wrap;textDirection=ltr;" parent="1" vertex="1">
          <mxGeometry x="1130" y="1440" width="40" height="40" as="geometry" />
        </mxCell>
        <mxCell id="q6XPmWuKXVtPRQOwv97A-182" value="&lt;font style=&quot;font-size: 9px&quot;&gt;- 30 Min&lt;/font&gt;" style="ellipse;html=1;aspect=fixed;strokeWidth=2;fontSize=15;fontColor=#FFFFFF;align=center;fillColor=#2DB3FF;strokeColor=none;spacing=0;verticalAlign=middle;whiteSpace=wrap;textDirection=ltr;" parent="1" vertex="1">
          <mxGeometry x="1171" y="1440" width="40" height="40" as="geometry" />
        </mxCell>
        <mxCell id="q6XPmWuKXVtPRQOwv97A-183" value="&lt;font style=&quot;font-size: 9px&quot;&gt;+ 5 Min&lt;/font&gt;" style="ellipse;html=1;aspect=fixed;strokeWidth=2;fontSize=15;fontColor=#FFFFFF;align=center;fillColor=#2DB3FF;strokeColor=none;spacing=0;verticalAlign=middle;whiteSpace=wrap;textDirection=ltr;" parent="1" vertex="1">
          <mxGeometry x="1209.5" y="1440" width="40" height="40" as="geometry" />
        </mxCell>
        <mxCell id="q6XPmWuKXVtPRQOwv97A-184" value="&lt;font style=&quot;font-size: 9px&quot;&gt;+30 Min&lt;/font&gt;" style="ellipse;html=1;aspect=fixed;strokeWidth=2;fontSize=15;fontColor=#FFFFFF;align=center;fillColor=#2DB3FF;strokeColor=none;spacing=0;verticalAlign=middle;whiteSpace=wrap;textDirection=ltr;" parent="1" vertex="1">
          <mxGeometry x="1250.5" y="1440" width="40" height="40" as="geometry" />
        </mxCell>
        <mxCell id="q6XPmWuKXVtPRQOwv97A-185" value="作成" style="rounded=0;whiteSpace=wrap;html=1;fillColor=#2DB3FF;fontSize=15;align=center;fontColor=#FFFFFF;strokeColor=none;" parent="1" vertex="1">
          <mxGeometry x="1241" y="850" width="55" height="25" as="geometry" />
        </mxCell>
        <mxCell id="q6XPmWuKXVtPRQOwv97A-186" value="" style="rounded=0;whiteSpace=wrap;html=1;" parent="1" vertex="1">
          <mxGeometry x="752.9100000000001" y="1730" width="544.17" height="356" as="geometry" />
        </mxCell>
        <mxCell id="q6XPmWuKXVtPRQOwv97A-187" value="/shiftset/create" style="text;html=1;strokeColor=none;fillColor=none;align=left;verticalAlign=middle;whiteSpace=wrap;rounded=0;fontSize=30;" parent="1" vertex="1">
          <mxGeometry x="752.91" y="1690" width="207.09" height="40" as="geometry" />
        </mxCell>
        <mxCell id="q6XPmWuKXVtPRQOwv97A-189" value="&lt;font style=&quot;font-size: 27px&quot; color=&quot;#ffffff&quot;&gt;&amp;nbsp; &amp;nbsp;ヘッダー&lt;/font&gt;" style="rounded=0;whiteSpace=wrap;html=1;align=left;fillColor=#6945C1;" parent="1" vertex="1">
          <mxGeometry x="752.91" y="1730" width="544.17" height="50" as="geometry" />
        </mxCell>
        <mxCell id="q6XPmWuKXVtPRQOwv97A-218" value="" style="rounded=0;whiteSpace=wrap;html=1;strokeColor=#33001A;fontSize=15;fontColor=#FFFFFF;align=center;fillColor=#FFFFFF;strokeWidth=2;" parent="1" vertex="1">
          <mxGeometry x="862.91" y="1850" width="130" height="20" as="geometry" />
        </mxCell>
        <mxCell id="q6XPmWuKXVtPRQOwv97A-219" value="シフト名" style="text;html=1;strokeColor=none;fillColor=none;align=right;verticalAlign=middle;whiteSpace=wrap;rounded=0;fontSize=15;fontColor=#33001A;" parent="1" vertex="1">
          <mxGeometry x="767.91" y="1850" width="80" height="20" as="geometry" />
        </mxCell>
        <mxCell id="q6XPmWuKXVtPRQOwv97A-220" value="" style="rounded=0;whiteSpace=wrap;html=1;strokeColor=#33001A;fontSize=15;fontColor=#FFFFFF;align=center;fillColor=#FFFFFF;strokeWidth=2;" parent="1" vertex="1">
          <mxGeometry x="862.91" y="1880" width="70" height="20" as="geometry" />
        </mxCell>
        <mxCell id="q6XPmWuKXVtPRQOwv97A-221" value="出勤時刻" style="text;html=1;strokeColor=none;fillColor=none;align=right;verticalAlign=middle;whiteSpace=wrap;rounded=0;fontSize=15;fontColor=#33001A;" parent="1" vertex="1">
          <mxGeometry x="767.91" y="1880" width="80" height="20" as="geometry" />
        </mxCell>
        <mxCell id="q6XPmWuKXVtPRQOwv97A-222" value="" style="rounded=0;whiteSpace=wrap;html=1;strokeColor=#33001A;fontSize=15;fontColor=#FFFFFF;align=center;fillColor=#FFFFFF;strokeWidth=2;" parent="1" vertex="1">
          <mxGeometry x="952.91" y="1880" width="70" height="20" as="geometry" />
        </mxCell>
        <mxCell id="q6XPmWuKXVtPRQOwv97A-223" value="時" style="text;html=1;strokeColor=none;fillColor=none;align=center;verticalAlign=middle;whiteSpace=wrap;rounded=0;fontSize=15;fontColor=#33001A;" parent="1" vertex="1">
          <mxGeometry x="927.91" y="1880" width="30" height="20" as="geometry" />
        </mxCell>
        <mxCell id="q6XPmWuKXVtPRQOwv97A-224" value="分" style="text;html=1;strokeColor=none;fillColor=none;align=center;verticalAlign=middle;whiteSpace=wrap;rounded=0;fontSize=15;fontColor=#33001A;" parent="1" vertex="1">
          <mxGeometry x="1020.0000000000001" y="1880" width="30" height="20" as="geometry" />
        </mxCell>
        <mxCell id="q6XPmWuKXVtPRQOwv97A-225" value="" style="rounded=0;whiteSpace=wrap;html=1;strokeColor=#33001A;fontSize=15;fontColor=#FFFFFF;align=center;fillColor=#FFFFFF;strokeWidth=2;" parent="1" vertex="1">
          <mxGeometry x="862.91" y="1910" width="70" height="20" as="geometry" />
        </mxCell>
        <mxCell id="q6XPmWuKXVtPRQOwv97A-226" value="退勤時刻" style="text;html=1;strokeColor=none;fillColor=none;align=right;verticalAlign=middle;whiteSpace=wrap;rounded=0;fontSize=15;fontColor=#33001A;" parent="1" vertex="1">
          <mxGeometry x="767.91" y="1910" width="80" height="20" as="geometry" />
        </mxCell>
        <mxCell id="q6XPmWuKXVtPRQOwv97A-227" value="" style="rounded=0;whiteSpace=wrap;html=1;strokeColor=#33001A;fontSize=15;fontColor=#FFFFFF;align=center;fillColor=#FFFFFF;strokeWidth=2;" parent="1" vertex="1">
          <mxGeometry x="952.91" y="1910" width="70" height="20" as="geometry" />
        </mxCell>
        <mxCell id="q6XPmWuKXVtPRQOwv97A-228" value="時" style="text;html=1;strokeColor=none;fillColor=none;align=center;verticalAlign=middle;whiteSpace=wrap;rounded=0;fontSize=15;fontColor=#33001A;" parent="1" vertex="1">
          <mxGeometry x="927.91" y="1910" width="30" height="20" as="geometry" />
        </mxCell>
        <mxCell id="q6XPmWuKXVtPRQOwv97A-229" value="分" style="text;html=1;strokeColor=none;fillColor=none;align=center;verticalAlign=middle;whiteSpace=wrap;rounded=0;fontSize=15;fontColor=#33001A;" parent="1" vertex="1">
          <mxGeometry x="1020.0000000000001" y="1910" width="30" height="20" as="geometry" />
        </mxCell>
        <mxCell id="q6XPmWuKXVtPRQOwv97A-230" value="" style="rounded=0;whiteSpace=wrap;html=1;strokeColor=#33001A;fontSize=15;fontColor=#FFFFFF;align=center;fillColor=#FFFFFF;strokeWidth=2;" parent="1" vertex="1">
          <mxGeometry x="862.91" y="1940" width="70" height="20" as="geometry" />
        </mxCell>
        <mxCell id="q6XPmWuKXVtPRQOwv97A-231" value="休憩時間合計" style="text;html=1;strokeColor=none;fillColor=none;align=right;verticalAlign=middle;whiteSpace=wrap;rounded=0;fontSize=15;fontColor=#33001A;" parent="1" vertex="1">
          <mxGeometry x="752.91" y="1940" width="100" height="20" as="geometry" />
        </mxCell>
        <mxCell id="q6XPmWuKXVtPRQOwv97A-232" value="" style="rounded=0;whiteSpace=wrap;html=1;strokeColor=#33001A;fontSize=15;fontColor=#FFFFFF;align=center;fillColor=#FFFFFF;strokeWidth=2;" parent="1" vertex="1">
          <mxGeometry x="972.91" y="1940" width="70" height="20" as="geometry" />
        </mxCell>
        <mxCell id="q6XPmWuKXVtPRQOwv97A-233" value="時間" style="text;html=1;strokeColor=none;fillColor=none;align=center;verticalAlign=middle;whiteSpace=wrap;rounded=0;fontSize=15;fontColor=#33001A;" parent="1" vertex="1">
          <mxGeometry x="932.91" y="1940" width="35" height="20" as="geometry" />
        </mxCell>
        <mxCell id="q6XPmWuKXVtPRQOwv97A-234" value="分" style="text;html=1;strokeColor=none;fillColor=none;align=center;verticalAlign=middle;whiteSpace=wrap;rounded=0;fontSize=15;fontColor=#33001A;" parent="1" vertex="1">
          <mxGeometry x="1040.0000000000002" y="1940" width="30" height="20" as="geometry" />
        </mxCell>
        <mxCell id="q6XPmWuKXVtPRQOwv97A-235" value="" style="rounded=0;whiteSpace=wrap;html=1;strokeColor=#33001A;fontSize=15;fontColor=#FFFFFF;align=center;fillColor=#FFFFFF;strokeWidth=2;" parent="1" vertex="1">
          <mxGeometry x="862.91" y="1970" width="70" height="20" as="geometry" />
        </mxCell>
        <mxCell id="q6XPmWuKXVtPRQOwv97A-236" value="深夜休憩時間" style="text;html=1;strokeColor=none;fillColor=none;align=right;verticalAlign=middle;whiteSpace=wrap;rounded=0;fontSize=15;fontColor=#33001A;" parent="1" vertex="1">
          <mxGeometry x="752.91" y="1970" width="100" height="20" as="geometry" />
        </mxCell>
        <mxCell id="q6XPmWuKXVtPRQOwv97A-237" value="" style="rounded=0;whiteSpace=wrap;html=1;strokeColor=#33001A;fontSize=15;fontColor=#FFFFFF;align=center;fillColor=#FFFFFF;strokeWidth=2;" parent="1" vertex="1">
          <mxGeometry x="972.91" y="1970" width="70" height="20" as="geometry" />
        </mxCell>
        <mxCell id="q6XPmWuKXVtPRQOwv97A-238" value="時間" style="text;html=1;strokeColor=none;fillColor=none;align=center;verticalAlign=middle;whiteSpace=wrap;rounded=0;fontSize=15;fontColor=#33001A;" parent="1" vertex="1">
          <mxGeometry x="932.91" y="1970" width="35" height="20" as="geometry" />
        </mxCell>
        <mxCell id="q6XPmWuKXVtPRQOwv97A-239" value="分" style="text;html=1;strokeColor=none;fillColor=none;align=center;verticalAlign=middle;whiteSpace=wrap;rounded=0;fontSize=15;fontColor=#33001A;" parent="1" vertex="1">
          <mxGeometry x="1040.0000000000002" y="1970" width="30" height="20" as="geometry" />
        </mxCell>
        <mxCell id="q6XPmWuKXVtPRQOwv97A-240" value="&lt;font style=&quot;font-size: 9px&quot;&gt;- 1.0 Hr&lt;/font&gt;" style="ellipse;html=1;aspect=fixed;strokeWidth=2;fontSize=15;fontColor=#FFFFFF;align=center;fillColor=#2DB3FF;strokeColor=none;spacing=0;verticalAlign=middle;whiteSpace=wrap;textDirection=ltr;" parent="1" vertex="1">
          <mxGeometry x="1042.91" y="1860" width="40" height="40" as="geometry" />
        </mxCell>
        <mxCell id="q6XPmWuKXVtPRQOwv97A-241" value="&lt;font style=&quot;font-size: 9px&quot;&gt;+ 1.0 Hr&lt;/font&gt;" style="ellipse;html=1;aspect=fixed;strokeWidth=2;fontSize=15;fontColor=#FFFFFF;align=center;fillColor=#2DB3FF;strokeColor=none;spacing=0;verticalAlign=middle;whiteSpace=wrap;textDirection=ltr;" parent="1" vertex="1">
          <mxGeometry x="1082.91" y="1860" width="40" height="40" as="geometry" />
        </mxCell>
        <mxCell id="q6XPmWuKXVtPRQOwv97A-242" value="&lt;font style=&quot;font-size: 9px&quot;&gt;- 5 Min&lt;/font&gt;" style="ellipse;html=1;aspect=fixed;strokeWidth=2;fontSize=15;fontColor=#FFFFFF;align=center;fillColor=#2DB3FF;strokeColor=none;spacing=0;verticalAlign=middle;whiteSpace=wrap;textDirection=ltr;" parent="1" vertex="1">
          <mxGeometry x="1122.91" y="1860" width="40" height="40" as="geometry" />
        </mxCell>
        <mxCell id="q6XPmWuKXVtPRQOwv97A-243" value="&lt;font style=&quot;font-size: 9px&quot;&gt;- 30 Min&lt;/font&gt;" style="ellipse;html=1;aspect=fixed;strokeWidth=2;fontSize=15;fontColor=#FFFFFF;align=center;fillColor=#2DB3FF;strokeColor=none;spacing=0;verticalAlign=middle;whiteSpace=wrap;textDirection=ltr;" parent="1" vertex="1">
          <mxGeometry x="1163.91" y="1860" width="40" height="40" as="geometry" />
        </mxCell>
        <mxCell id="q6XPmWuKXVtPRQOwv97A-244" value="&lt;font style=&quot;font-size: 9px&quot;&gt;+ 5 Min&lt;/font&gt;" style="ellipse;html=1;aspect=fixed;strokeWidth=2;fontSize=15;fontColor=#FFFFFF;align=center;fillColor=#2DB3FF;strokeColor=none;spacing=0;verticalAlign=middle;whiteSpace=wrap;textDirection=ltr;" parent="1" vertex="1">
          <mxGeometry x="1202.41" y="1860" width="40" height="40" as="geometry" />
        </mxCell>
        <mxCell id="q6XPmWuKXVtPRQOwv97A-245" value="&lt;font style=&quot;font-size: 9px&quot;&gt;+30 Min&lt;/font&gt;" style="ellipse;html=1;aspect=fixed;strokeWidth=2;fontSize=15;fontColor=#FFFFFF;align=center;fillColor=#2DB3FF;strokeColor=none;spacing=0;verticalAlign=middle;whiteSpace=wrap;textDirection=ltr;" parent="1" vertex="1">
          <mxGeometry x="1243.41" y="1860" width="40" height="40" as="geometry" />
        </mxCell>
        <mxCell id="q6XPmWuKXVtPRQOwv97A-246" value="更新" style="rounded=0;whiteSpace=wrap;html=1;fillColor=#2DB3FF;fontSize=15;align=center;fontColor=#FFFFFF;strokeColor=none;" parent="1" vertex="1">
          <mxGeometry x="1027.09" y="1580" width="55" height="25" as="geometry" />
        </mxCell>
        <mxCell id="q6XPmWuKXVtPRQOwv97A-247" value="作成" style="rounded=0;whiteSpace=wrap;html=1;fillColor=#2DB3FF;fontSize=15;align=center;fontColor=#FFFFFF;strokeColor=none;" parent="1" vertex="1">
          <mxGeometry x="1020" y="2020" width="55" height="25" as="geometry" />
        </mxCell>
        <mxCell id="q6XPmWuKXVtPRQOwv97A-248" value="シフト新規作成" style="text;html=1;strokeColor=none;fillColor=none;align=left;verticalAlign=middle;whiteSpace=wrap;rounded=0;fontSize=30;" parent="1" vertex="1">
          <mxGeometry x="759.5000000000001" y="1790" width="431" height="40" as="geometry" />
        </mxCell>
        <mxCell id="q6XPmWuKXVtPRQOwv97A-249" value="シフト編集" style="text;html=1;strokeColor=none;fillColor=none;align=left;verticalAlign=middle;whiteSpace=wrap;rounded=0;fontSize=30;" parent="1" vertex="1">
          <mxGeometry x="767.9100000000001" y="1310" width="431" height="40" as="geometry" />
        </mxCell>
        <mxCell id="q6XPmWuKXVtPRQOwv97A-251" value="" style="endArrow=classic;html=1;strokeColor=#33001A;strokeWidth=3;fontSize=15;fontColor=#FFFFFF;entryX=1;entryY=0.5;entryDx=0;entryDy=0;rounded=1;" parent="1" source="q6XPmWuKXVtPRQOwv97A-185" target="q6XPmWuKXVtPRQOwv97A-187" edge="1">
          <mxGeometry width="50" height="50" relative="1" as="geometry">
            <mxPoint x="1300" y="860" as="sourcePoint" />
            <mxPoint x="1360" y="1470" as="targetPoint" />
            <Array as="points">
              <mxPoint x="1400" y="860" />
              <mxPoint x="1400" y="1710" />
            </Array>
          </mxGeometry>
        </mxCell>
        <mxCell id="q6XPmWuKXVtPRQOwv97A-252" value="" style="endArrow=classic;html=1;strokeColor=#33001A;strokeWidth=3;fontSize=15;fontColor=#FFFFFF;exitX=1;exitY=0.5;exitDx=0;exitDy=0;" parent="1" source="q6XPmWuKXVtPRQOwv97A-178" edge="1">
          <mxGeometry width="50" height="50" relative="1" as="geometry">
            <mxPoint x="1200" y="1510" as="sourcePoint" />
            <mxPoint x="1400" y="1393" as="targetPoint" />
          </mxGeometry>
        </mxCell>
        <mxCell id="q6XPmWuKXVtPRQOwv97A-253" value="" style="endArrow=classic;html=1;strokeColor=#33001A;strokeWidth=3;fontSize=15;fontColor=#FFFFFF;exitX=0;exitY=0.5;exitDx=0;exitDy=0;entryX=0;entryY=0.5;entryDx=0;entryDy=0;" parent="1" source="q6XPmWuKXVtPRQOwv97A-247" target="q6XPmWuKXVtPRQOwv97A-117" edge="1">
          <mxGeometry width="50" height="50" relative="1" as="geometry">
            <mxPoint x="640" y="1740" as="sourcePoint" />
            <mxPoint x="700" y="760" as="targetPoint" />
            <Array as="points">
              <mxPoint x="680" y="2033" />
              <mxPoint x="680" y="760" />
            </Array>
          </mxGeometry>
        </mxCell>
        <mxCell id="q6XPmWuKXVtPRQOwv97A-254" value="" style="endArrow=classic;html=1;strokeColor=#33001A;strokeWidth=3;fontSize=15;fontColor=#FFFFFF;exitX=0;exitY=0.5;exitDx=0;exitDy=0;" parent="1" source="q6XPmWuKXVtPRQOwv97A-246" edge="1">
          <mxGeometry width="50" height="50" relative="1" as="geometry">
            <mxPoint x="890" y="1690" as="sourcePoint" />
            <mxPoint x="680" y="1593" as="targetPoint" />
          </mxGeometry>
        </mxCell>
        <mxCell id="q6XPmWuKXVtPRQOwv97A-255" value="" style="rounded=0;whiteSpace=wrap;html=1;" parent="1" vertex="1">
          <mxGeometry x="1520" y="780" width="544.17" height="710" as="geometry" />
        </mxCell>
        <mxCell id="q6XPmWuKXVtPRQOwv97A-256" value="/attendance?Month=yyyymm" style="text;html=1;strokeColor=none;fillColor=none;align=left;verticalAlign=middle;whiteSpace=wrap;rounded=0;fontSize=30;" parent="1" vertex="1">
          <mxGeometry x="1521" y="740" width="399" height="40" as="geometry" />
        </mxCell>
        <mxCell id="q6XPmWuKXVtPRQOwv97A-257" value="&lt;font style=&quot;font-size: 27px&quot; color=&quot;#ffffff&quot;&gt;&amp;nbsp; &amp;nbsp;ヘッダー&lt;/font&gt;" style="rounded=0;whiteSpace=wrap;html=1;align=left;fillColor=#6945C1;" parent="1" vertex="1">
          <mxGeometry x="1520" y="780" width="544.17" height="50" as="geometry" />
        </mxCell>
        <mxCell id="q6XPmWuKXVtPRQOwv97A-258" value="" style="endArrow=none;html=1;strokeWidth=2;fontSize=15;fontColor=#FFFFFF;dashed=1;exitX=0;exitY=0.5;exitDx=0;exitDy=0;entryX=1;entryY=0.5;entryDx=0;entryDy=0;" parent="1" source="q6XPmWuKXVtPRQOwv97A-255" target="q6XPmWuKXVtPRQOwv97A-255" edge="1">
          <mxGeometry width="50" height="50" relative="1" as="geometry">
            <mxPoint x="1540" y="1125.42" as="sourcePoint" />
            <mxPoint x="2083.17" y="1125" as="targetPoint" />
          </mxGeometry>
        </mxCell>
        <mxCell id="q6XPmWuKXVtPRQOwv97A-259" value="シフト割当" style="text;html=1;align=center;verticalAlign=middle;resizable=0;points=[];autosize=1;fontSize=15;fontColor=#FFFFFF;" parent="1" vertex="1">
          <mxGeometry x="475" y="175" width="90" height="20" as="geometry" />
        </mxCell>
        <mxCell id="FfchCcBJmLkpdb2am3XC-4" value="&lt;font style=&quot;font-size: 20px&quot;&gt;2020/09&lt;/font&gt;" style="text;html=1;strokeColor=none;fillColor=none;align=center;verticalAlign=middle;whiteSpace=wrap;rounded=0;" parent="1" vertex="1">
          <mxGeometry x="1757.5" y="845" width="70" height="20" as="geometry" />
        </mxCell>
        <mxCell id="FfchCcBJmLkpdb2am3XC-147" value="&amp;nbsp;Sun&amp;nbsp; &amp;nbsp; &amp;nbsp; &amp;nbsp; Mon&amp;nbsp; &amp;nbsp; &amp;nbsp; &amp;nbsp;Tue&amp;nbsp; &amp;nbsp; &amp;nbsp; &amp;nbsp;Wed&amp;nbsp; &amp;nbsp; &amp;nbsp; &amp;nbsp; Thr&amp;nbsp; &amp;nbsp; &amp;nbsp; &amp;nbsp; Fri&amp;nbsp; &amp;nbsp; &amp;nbsp; &amp;nbsp; &amp;nbsp; Sat" style="text;html=1;strokeColor=none;fillColor=none;align=left;verticalAlign=middle;whiteSpace=wrap;rounded=0;fontSize=20;" parent="1" vertex="1">
          <mxGeometry x="1529.5200000000002" y="880" width="531.07" height="20" as="geometry" />
        </mxCell>
        <mxCell id="FfchCcBJmLkpdb2am3XC-164" value="" style="group" parent="1" vertex="1" connectable="0">
          <mxGeometry x="1760" y="910" width="65" height="65" as="geometry" />
        </mxCell>
        <mxCell id="FfchCcBJmLkpdb2am3XC-165" value="" style="whiteSpace=wrap;html=1;aspect=fixed;fontSize=15;fontColor=#FFFFFF;align=center;fillColor=none;strokeWidth=2;container=0;strokeColor=#33001A;" parent="FfchCcBJmLkpdb2am3XC-164" vertex="1">
          <mxGeometry width="65" height="65" as="geometry" />
        </mxCell>
        <mxCell id="FfchCcBJmLkpdb2am3XC-166" value="&lt;font style=&quot;font-size: 11px;&quot;&gt;1&lt;/font&gt;" style="text;html=1;align=left;verticalAlign=middle;resizable=0;points=[];autosize=1;fontSize=11;fontColor=#33001A;" parent="FfchCcBJmLkpdb2am3XC-164" vertex="1">
          <mxGeometry x="0.42000000000007276" width="20" height="20" as="geometry" />
        </mxCell>
        <mxCell id="FfchCcBJmLkpdb2am3XC-167" value="&lt;font style=&quot;font-size: 11px;&quot;&gt;AB&lt;/font&gt;" style="text;html=1;align=center;verticalAlign=middle;resizable=0;points=[];autosize=1;fontSize=11;fontColor=#00D4C9;" parent="FfchCcBJmLkpdb2am3XC-164" vertex="1">
          <mxGeometry x="12.5" width="30" height="20" as="geometry" />
        </mxCell>
        <mxCell id="FfchCcBJmLkpdb2am3XC-168" value="08:30~17:30" style="text;html=1;strokeColor=none;fillColor=none;align=center;verticalAlign=middle;whiteSpace=wrap;rounded=0;fontSize=11;" parent="FfchCcBJmLkpdb2am3XC-164" vertex="1">
          <mxGeometry x="12.5" y="22.499999999999886" width="40" height="20" as="geometry" />
        </mxCell>
        <mxCell id="FfchCcBJmLkpdb2am3XC-169" value="" style="group" parent="1" vertex="1" connectable="0">
          <mxGeometry x="1838" y="910" width="65" height="65" as="geometry" />
        </mxCell>
        <mxCell id="FfchCcBJmLkpdb2am3XC-170" value="" style="whiteSpace=wrap;html=1;aspect=fixed;fontSize=15;fontColor=#FFFFFF;align=center;fillColor=none;strokeWidth=2;container=0;strokeColor=#33001A;" parent="FfchCcBJmLkpdb2am3XC-169" vertex="1">
          <mxGeometry width="65" height="65" as="geometry" />
        </mxCell>
        <mxCell id="FfchCcBJmLkpdb2am3XC-171" value="&lt;font style=&quot;font-size: 11px;&quot;&gt;1&lt;/font&gt;" style="text;html=1;align=left;verticalAlign=middle;resizable=0;points=[];autosize=1;fontSize=11;fontColor=#33001A;" parent="FfchCcBJmLkpdb2am3XC-169" vertex="1">
          <mxGeometry x="0.42000000000007276" width="20" height="20" as="geometry" />
        </mxCell>
        <mxCell id="FfchCcBJmLkpdb2am3XC-172" value="&lt;font style=&quot;font-size: 11px;&quot;&gt;AB&lt;/font&gt;" style="text;html=1;align=center;verticalAlign=middle;resizable=0;points=[];autosize=1;fontSize=11;fontColor=#00D4C9;" parent="FfchCcBJmLkpdb2am3XC-169" vertex="1">
          <mxGeometry x="12.5" width="30" height="20" as="geometry" />
        </mxCell>
        <mxCell id="FfchCcBJmLkpdb2am3XC-173" value="08:30~17:30" style="text;html=1;strokeColor=none;fillColor=none;align=center;verticalAlign=middle;whiteSpace=wrap;rounded=0;fontSize=11;" parent="FfchCcBJmLkpdb2am3XC-169" vertex="1">
          <mxGeometry x="12.5" y="22.499999999999886" width="40" height="20" as="geometry" />
        </mxCell>
        <mxCell id="FfchCcBJmLkpdb2am3XC-185" value="" style="group" parent="1" vertex="1" connectable="0">
          <mxGeometry x="1915" y="910" width="65" height="65" as="geometry" />
        </mxCell>
        <mxCell id="FfchCcBJmLkpdb2am3XC-186" value="" style="whiteSpace=wrap;html=1;aspect=fixed;fontSize=15;fontColor=#FFFFFF;align=center;fillColor=none;strokeWidth=2;container=0;strokeColor=#33001A;" parent="FfchCcBJmLkpdb2am3XC-185" vertex="1">
          <mxGeometry width="65" height="65" as="geometry" />
        </mxCell>
        <mxCell id="FfchCcBJmLkpdb2am3XC-187" value="&lt;font style=&quot;font-size: 11px;&quot;&gt;1&lt;/font&gt;" style="text;html=1;align=left;verticalAlign=middle;resizable=0;points=[];autosize=1;fontSize=11;fontColor=#33001A;" parent="FfchCcBJmLkpdb2am3XC-185" vertex="1">
          <mxGeometry x="0.42000000000007276" width="20" height="20" as="geometry" />
        </mxCell>
        <mxCell id="FfchCcBJmLkpdb2am3XC-188" value="&lt;font style=&quot;font-size: 11px;&quot;&gt;AB&lt;/font&gt;" style="text;html=1;align=center;verticalAlign=middle;resizable=0;points=[];autosize=1;fontSize=11;fontColor=#00D4C9;" parent="FfchCcBJmLkpdb2am3XC-185" vertex="1">
          <mxGeometry x="12.5" width="30" height="20" as="geometry" />
        </mxCell>
        <mxCell id="FfchCcBJmLkpdb2am3XC-189" value="08:30~17:30" style="text;html=1;strokeColor=none;fillColor=none;align=center;verticalAlign=middle;whiteSpace=wrap;rounded=0;fontSize=11;" parent="FfchCcBJmLkpdb2am3XC-185" vertex="1">
          <mxGeometry x="12.5" y="22.499999999999886" width="40" height="20" as="geometry" />
        </mxCell>
        <mxCell id="FfchCcBJmLkpdb2am3XC-30" value="" style="whiteSpace=wrap;html=1;aspect=fixed;fontSize=15;fontColor=#FFFFFF;align=center;fillColor=none;strokeWidth=2;container=0;strokeColor=#EDAE00;" parent="1" vertex="1">
          <mxGeometry x="1682.09" y="911.07" width="65" height="65" as="geometry" />
        </mxCell>
        <mxCell id="FfchCcBJmLkpdb2am3XC-31" value="&lt;font style=&quot;font-size: 11px;&quot;&gt;1&lt;/font&gt;" style="text;html=1;align=left;verticalAlign=middle;resizable=0;points=[];autosize=1;fontSize=11;fontColor=#33001A;" parent="1" vertex="1">
          <mxGeometry x="1682.51" y="911.07" width="20" height="20" as="geometry" />
        </mxCell>
        <mxCell id="FfchCcBJmLkpdb2am3XC-32" value="&lt;font style=&quot;font-size: 11px;&quot;&gt;AB&lt;/font&gt;" style="text;html=1;align=center;verticalAlign=middle;resizable=0;points=[];autosize=1;fontSize=11;fontColor=#00D4C9;" parent="1" vertex="1">
          <mxGeometry x="1694.59" y="911.07" width="30" height="20" as="geometry" />
        </mxCell>
        <mxCell id="FfchCcBJmLkpdb2am3XC-150" value="08:30~17:30" style="text;html=1;strokeColor=none;fillColor=none;align=center;verticalAlign=middle;whiteSpace=wrap;rounded=0;fontSize=11;" parent="1" vertex="1">
          <mxGeometry x="1694.59" y="933.5699999999999" width="40" height="20" as="geometry" />
        </mxCell>
        <mxCell id="FfchCcBJmLkpdb2am3XC-195" value="" style="group;fontStyle=1" parent="1" vertex="1" connectable="0">
          <mxGeometry x="1760" y="990" width="65" height="65" as="geometry" />
        </mxCell>
        <mxCell id="FfchCcBJmLkpdb2am3XC-196" value="" style="whiteSpace=wrap;html=1;aspect=fixed;fontSize=15;fontColor=#FFFFFF;align=center;fillColor=none;strokeWidth=2;container=0;strokeColor=#33001A;" parent="FfchCcBJmLkpdb2am3XC-195" vertex="1">
          <mxGeometry width="65" height="65" as="geometry" />
        </mxCell>
        <mxCell id="FfchCcBJmLkpdb2am3XC-197" value="&lt;font style=&quot;font-size: 11px;&quot;&gt;1&lt;/font&gt;" style="text;html=1;align=left;verticalAlign=middle;resizable=0;points=[];autosize=1;fontSize=11;fontColor=#33001A;" parent="FfchCcBJmLkpdb2am3XC-195" vertex="1">
          <mxGeometry x="0.42000000000007276" width="20" height="20" as="geometry" />
        </mxCell>
        <mxCell id="FfchCcBJmLkpdb2am3XC-198" value="&lt;font style=&quot;font-size: 11px;&quot;&gt;AB&lt;/font&gt;" style="text;html=1;align=center;verticalAlign=middle;resizable=0;points=[];autosize=1;fontSize=11;fontColor=#00D4C9;" parent="FfchCcBJmLkpdb2am3XC-195" vertex="1">
          <mxGeometry x="12.5" width="30" height="20" as="geometry" />
        </mxCell>
        <mxCell id="FfchCcBJmLkpdb2am3XC-199" value="08:30~17:30" style="text;html=1;strokeColor=none;fillColor=none;align=center;verticalAlign=middle;whiteSpace=wrap;rounded=0;fontSize=11;" parent="FfchCcBJmLkpdb2am3XC-195" vertex="1">
          <mxGeometry x="12.5" y="22.499999999999886" width="40" height="20" as="geometry" />
        </mxCell>
        <mxCell id="FfchCcBJmLkpdb2am3XC-200" value="" style="group;fontStyle=1" parent="1" vertex="1" connectable="0">
          <mxGeometry x="1838" y="990" width="65" height="65" as="geometry" />
        </mxCell>
        <mxCell id="FfchCcBJmLkpdb2am3XC-201" value="" style="whiteSpace=wrap;html=1;aspect=fixed;fontSize=15;fontColor=#FFFFFF;align=center;fillColor=none;strokeWidth=2;container=0;strokeColor=#33001A;" parent="FfchCcBJmLkpdb2am3XC-200" vertex="1">
          <mxGeometry width="65" height="65" as="geometry" />
        </mxCell>
        <mxCell id="FfchCcBJmLkpdb2am3XC-202" value="&lt;font style=&quot;font-size: 11px;&quot;&gt;1&lt;/font&gt;" style="text;html=1;align=left;verticalAlign=middle;resizable=0;points=[];autosize=1;fontSize=11;fontColor=#33001A;" parent="FfchCcBJmLkpdb2am3XC-200" vertex="1">
          <mxGeometry x="0.42000000000007276" width="20" height="20" as="geometry" />
        </mxCell>
        <mxCell id="FfchCcBJmLkpdb2am3XC-203" value="&lt;font style=&quot;font-size: 11px;&quot;&gt;AB&lt;/font&gt;" style="text;html=1;align=center;verticalAlign=middle;resizable=0;points=[];autosize=1;fontSize=11;fontColor=#00D4C9;" parent="FfchCcBJmLkpdb2am3XC-200" vertex="1">
          <mxGeometry x="12.5" width="30" height="20" as="geometry" />
        </mxCell>
        <mxCell id="FfchCcBJmLkpdb2am3XC-204" value="08:30~17:30" style="text;html=1;strokeColor=none;fillColor=none;align=center;verticalAlign=middle;whiteSpace=wrap;rounded=0;fontSize=11;" parent="FfchCcBJmLkpdb2am3XC-200" vertex="1">
          <mxGeometry x="12.5" y="22.499999999999886" width="40" height="20" as="geometry" />
        </mxCell>
        <mxCell id="FfchCcBJmLkpdb2am3XC-205" value="" style="group;fontStyle=1" parent="1" vertex="1" connectable="0">
          <mxGeometry x="1916" y="990" width="65" height="65" as="geometry" />
        </mxCell>
        <mxCell id="FfchCcBJmLkpdb2am3XC-206" value="" style="whiteSpace=wrap;html=1;aspect=fixed;fontSize=15;fontColor=#FFFFFF;align=center;fillColor=none;strokeWidth=2;container=0;strokeColor=#33001A;" parent="FfchCcBJmLkpdb2am3XC-205" vertex="1">
          <mxGeometry width="65" height="65" as="geometry" />
        </mxCell>
        <mxCell id="FfchCcBJmLkpdb2am3XC-207" value="&lt;font style=&quot;font-size: 11px;&quot;&gt;1&lt;/font&gt;" style="text;html=1;align=left;verticalAlign=middle;resizable=0;points=[];autosize=1;fontSize=11;fontColor=#33001A;" parent="FfchCcBJmLkpdb2am3XC-205" vertex="1">
          <mxGeometry x="0.42000000000007276" width="20" height="20" as="geometry" />
        </mxCell>
        <mxCell id="FfchCcBJmLkpdb2am3XC-208" value="&lt;font style=&quot;font-size: 11px;&quot;&gt;AB&lt;/font&gt;" style="text;html=1;align=center;verticalAlign=middle;resizable=0;points=[];autosize=1;fontSize=11;fontColor=#00D4C9;" parent="FfchCcBJmLkpdb2am3XC-205" vertex="1">
          <mxGeometry x="12.5" width="30" height="20" as="geometry" />
        </mxCell>
        <mxCell id="FfchCcBJmLkpdb2am3XC-209" value="08:30~17:30" style="text;html=1;strokeColor=none;fillColor=none;align=center;verticalAlign=middle;whiteSpace=wrap;rounded=0;fontSize=11;" parent="FfchCcBJmLkpdb2am3XC-205" vertex="1">
          <mxGeometry x="12.5" y="22.499999999999886" width="40" height="20" as="geometry" />
        </mxCell>
        <mxCell id="FfchCcBJmLkpdb2am3XC-210" value="" style="group" parent="1" vertex="1" connectable="0">
          <mxGeometry x="1990" y="910" width="65" height="65" as="geometry" />
        </mxCell>
        <mxCell id="FfchCcBJmLkpdb2am3XC-191" value="" style="whiteSpace=wrap;html=1;aspect=fixed;fontSize=15;fontColor=#FFFFFF;align=center;fillColor=none;strokeWidth=2;container=0;strokeColor=#6945C1;" parent="FfchCcBJmLkpdb2am3XC-210" vertex="1">
          <mxGeometry width="65" height="65" as="geometry" />
        </mxCell>
        <mxCell id="FfchCcBJmLkpdb2am3XC-192" value="&lt;font style=&quot;font-size: 11px;&quot;&gt;1&lt;/font&gt;" style="text;html=1;align=left;verticalAlign=middle;resizable=0;points=[];autosize=1;fontSize=11;fontColor=#33001A;" parent="FfchCcBJmLkpdb2am3XC-210" vertex="1">
          <mxGeometry x="0.42000000000007276" width="20" height="20" as="geometry" />
        </mxCell>
        <mxCell id="FfchCcBJmLkpdb2am3XC-193" value="&lt;font style=&quot;font-size: 11px;&quot;&gt;AB&lt;/font&gt;" style="text;html=1;align=center;verticalAlign=middle;resizable=0;points=[];autosize=1;fontSize=11;fontColor=#00D4C9;" parent="FfchCcBJmLkpdb2am3XC-210" vertex="1">
          <mxGeometry x="12.5" width="30" height="20" as="geometry" />
        </mxCell>
        <mxCell id="FfchCcBJmLkpdb2am3XC-194" value="08:30~17:30" style="text;html=1;strokeColor=none;fillColor=none;align=center;verticalAlign=middle;whiteSpace=wrap;rounded=0;fontSize=11;" parent="FfchCcBJmLkpdb2am3XC-210" vertex="1">
          <mxGeometry x="12.5" y="20" width="40" height="22.5" as="geometry" />
        </mxCell>
        <mxCell id="FfchCcBJmLkpdb2am3XC-211" value="" style="group" parent="1" vertex="1" connectable="0">
          <mxGeometry x="1990" y="990" width="65" height="65" as="geometry" />
        </mxCell>
        <mxCell id="FfchCcBJmLkpdb2am3XC-212" value="" style="whiteSpace=wrap;html=1;aspect=fixed;fontSize=15;fontColor=#FFFFFF;align=center;fillColor=none;strokeWidth=2;container=0;strokeColor=#6945C1;" parent="FfchCcBJmLkpdb2am3XC-211" vertex="1">
          <mxGeometry width="65" height="65" as="geometry" />
        </mxCell>
        <mxCell id="FfchCcBJmLkpdb2am3XC-213" value="&lt;font style=&quot;font-size: 11px;&quot;&gt;1&lt;/font&gt;" style="text;html=1;align=left;verticalAlign=middle;resizable=0;points=[];autosize=1;fontSize=11;fontColor=#33001A;" parent="FfchCcBJmLkpdb2am3XC-211" vertex="1">
          <mxGeometry x="0.42000000000007276" width="20" height="20" as="geometry" />
        </mxCell>
        <mxCell id="FfchCcBJmLkpdb2am3XC-214" value="&lt;font style=&quot;font-size: 11px;&quot;&gt;AB&lt;/font&gt;" style="text;html=1;align=center;verticalAlign=middle;resizable=0;points=[];autosize=1;fontSize=11;fontColor=#00D4C9;" parent="FfchCcBJmLkpdb2am3XC-211" vertex="1">
          <mxGeometry x="12.5" width="30" height="20" as="geometry" />
        </mxCell>
        <mxCell id="FfchCcBJmLkpdb2am3XC-215" value="08:30~17:30" style="text;html=1;strokeColor=none;fillColor=none;align=center;verticalAlign=middle;whiteSpace=wrap;rounded=0;fontSize=11;" parent="FfchCcBJmLkpdb2am3XC-211" vertex="1">
          <mxGeometry x="12.5" y="20" width="40" height="22.5" as="geometry" />
        </mxCell>
        <mxCell id="FfchCcBJmLkpdb2am3XC-216" value="" style="group;fontStyle=1" parent="1" vertex="1" connectable="0">
          <mxGeometry x="1682" y="990" width="65" height="65" as="geometry" />
        </mxCell>
        <mxCell id="FfchCcBJmLkpdb2am3XC-217" value="" style="whiteSpace=wrap;html=1;aspect=fixed;fontSize=15;fontColor=#FFFFFF;align=center;fillColor=none;strokeWidth=2;container=0;strokeColor=#33001A;" parent="FfchCcBJmLkpdb2am3XC-216" vertex="1">
          <mxGeometry width="65" height="65" as="geometry" />
        </mxCell>
        <mxCell id="FfchCcBJmLkpdb2am3XC-218" value="&lt;font style=&quot;font-size: 11px;&quot;&gt;1&lt;/font&gt;" style="text;html=1;align=left;verticalAlign=middle;resizable=0;points=[];autosize=1;fontSize=11;fontColor=#33001A;" parent="FfchCcBJmLkpdb2am3XC-216" vertex="1">
          <mxGeometry x="0.42000000000007276" width="20" height="20" as="geometry" />
        </mxCell>
        <mxCell id="FfchCcBJmLkpdb2am3XC-219" value="&lt;font style=&quot;font-size: 11px;&quot;&gt;AB&lt;/font&gt;" style="text;html=1;align=center;verticalAlign=middle;resizable=0;points=[];autosize=1;fontSize=11;fontColor=#00D4C9;" parent="FfchCcBJmLkpdb2am3XC-216" vertex="1">
          <mxGeometry x="12.5" width="30" height="20" as="geometry" />
        </mxCell>
        <mxCell id="FfchCcBJmLkpdb2am3XC-220" value="08:30~17:30" style="text;html=1;strokeColor=none;fillColor=none;align=center;verticalAlign=middle;whiteSpace=wrap;rounded=0;fontSize=11;" parent="FfchCcBJmLkpdb2am3XC-216" vertex="1">
          <mxGeometry x="12.5" y="22.499999999999886" width="40" height="20" as="geometry" />
        </mxCell>
        <mxCell id="FfchCcBJmLkpdb2am3XC-221" value="" style="group;fontStyle=1" parent="1" vertex="1" connectable="0">
          <mxGeometry x="1607" y="990" width="65" height="65" as="geometry" />
        </mxCell>
        <mxCell id="FfchCcBJmLkpdb2am3XC-222" value="" style="whiteSpace=wrap;html=1;aspect=fixed;fontSize=15;fontColor=#FFFFFF;align=center;fillColor=none;strokeWidth=2;container=0;strokeColor=#33001A;" parent="FfchCcBJmLkpdb2am3XC-221" vertex="1">
          <mxGeometry width="65" height="65" as="geometry" />
        </mxCell>
        <mxCell id="FfchCcBJmLkpdb2am3XC-223" value="&lt;font style=&quot;font-size: 11px;&quot;&gt;1&lt;/font&gt;" style="text;html=1;align=left;verticalAlign=middle;resizable=0;points=[];autosize=1;fontSize=11;fontColor=#33001A;" parent="FfchCcBJmLkpdb2am3XC-221" vertex="1">
          <mxGeometry x="0.42000000000007276" width="20" height="20" as="geometry" />
        </mxCell>
        <mxCell id="FfchCcBJmLkpdb2am3XC-224" value="&lt;font style=&quot;font-size: 11px;&quot;&gt;AB&lt;/font&gt;" style="text;html=1;align=center;verticalAlign=middle;resizable=0;points=[];autosize=1;fontSize=11;fontColor=#00D4C9;" parent="FfchCcBJmLkpdb2am3XC-221" vertex="1">
          <mxGeometry x="12.5" width="30" height="20" as="geometry" />
        </mxCell>
        <mxCell id="FfchCcBJmLkpdb2am3XC-225" value="08:30~17:30" style="text;html=1;strokeColor=none;fillColor=none;align=center;verticalAlign=middle;whiteSpace=wrap;rounded=0;fontSize=11;" parent="FfchCcBJmLkpdb2am3XC-221" vertex="1">
          <mxGeometry x="12.5" y="22.499999999999886" width="40" height="20" as="geometry" />
        </mxCell>
        <mxCell id="FfchCcBJmLkpdb2am3XC-231" value="" style="group" parent="1" vertex="1" connectable="0">
          <mxGeometry x="1530" y="990" width="65" height="65" as="geometry" />
        </mxCell>
        <mxCell id="FfchCcBJmLkpdb2am3XC-232" value="" style="whiteSpace=wrap;html=1;aspect=fixed;fontSize=15;fontColor=#FFFFFF;align=center;fillColor=none;strokeWidth=2;container=0;strokeColor=#6945C1;" parent="FfchCcBJmLkpdb2am3XC-231" vertex="1">
          <mxGeometry width="65" height="65" as="geometry" />
        </mxCell>
        <mxCell id="FfchCcBJmLkpdb2am3XC-233" value="&lt;font style=&quot;font-size: 11px;&quot;&gt;1&lt;/font&gt;" style="text;html=1;align=left;verticalAlign=middle;resizable=0;points=[];autosize=1;fontSize=11;fontColor=#33001A;" parent="FfchCcBJmLkpdb2am3XC-231" vertex="1">
          <mxGeometry x="0.42000000000007276" width="20" height="20" as="geometry" />
        </mxCell>
        <mxCell id="FfchCcBJmLkpdb2am3XC-234" value="&lt;font style=&quot;font-size: 11px;&quot;&gt;AB&lt;/font&gt;" style="text;html=1;align=center;verticalAlign=middle;resizable=0;points=[];autosize=1;fontSize=11;fontColor=#00D4C9;" parent="FfchCcBJmLkpdb2am3XC-231" vertex="1">
          <mxGeometry x="12.5" width="30" height="20" as="geometry" />
        </mxCell>
        <mxCell id="FfchCcBJmLkpdb2am3XC-235" value="08:30~17:30" style="text;html=1;strokeColor=none;fillColor=none;align=center;verticalAlign=middle;whiteSpace=wrap;rounded=0;fontSize=11;" parent="FfchCcBJmLkpdb2am3XC-231" vertex="1">
          <mxGeometry x="12.5" y="20" width="40" height="22.5" as="geometry" />
        </mxCell>
        <mxCell id="FfchCcBJmLkpdb2am3XC-236" value="" style="group" parent="1" vertex="1" connectable="0">
          <mxGeometry x="1990" y="1070" width="65" height="65" as="geometry" />
        </mxCell>
        <mxCell id="FfchCcBJmLkpdb2am3XC-237" value="" style="whiteSpace=wrap;html=1;aspect=fixed;fontSize=15;fontColor=#FFFFFF;align=center;fillColor=none;strokeWidth=2;container=0;strokeColor=#6945C1;" parent="FfchCcBJmLkpdb2am3XC-236" vertex="1">
          <mxGeometry width="65" height="65" as="geometry" />
        </mxCell>
        <mxCell id="FfchCcBJmLkpdb2am3XC-238" value="&lt;font style=&quot;font-size: 11px;&quot;&gt;1&lt;/font&gt;" style="text;html=1;align=left;verticalAlign=middle;resizable=0;points=[];autosize=1;fontSize=11;fontColor=#33001A;" parent="FfchCcBJmLkpdb2am3XC-236" vertex="1">
          <mxGeometry x="0.42000000000007276" width="20" height="20" as="geometry" />
        </mxCell>
        <mxCell id="FfchCcBJmLkpdb2am3XC-239" value="&lt;font style=&quot;font-size: 11px;&quot;&gt;AB&lt;/font&gt;" style="text;html=1;align=center;verticalAlign=middle;resizable=0;points=[];autosize=1;fontSize=11;fontColor=#00D4C9;" parent="FfchCcBJmLkpdb2am3XC-236" vertex="1">
          <mxGeometry x="12.5" width="30" height="20" as="geometry" />
        </mxCell>
        <mxCell id="FfchCcBJmLkpdb2am3XC-240" value="08:30~17:30" style="text;html=1;strokeColor=none;fillColor=none;align=center;verticalAlign=middle;whiteSpace=wrap;rounded=0;fontSize=11;" parent="FfchCcBJmLkpdb2am3XC-236" vertex="1">
          <mxGeometry x="12.5" y="20" width="40" height="22.5" as="geometry" />
        </mxCell>
        <mxCell id="FfchCcBJmLkpdb2am3XC-241" value="" style="group" parent="1" vertex="1" connectable="0">
          <mxGeometry x="1530" y="1070" width="65" height="65" as="geometry" />
        </mxCell>
        <mxCell id="FfchCcBJmLkpdb2am3XC-242" value="" style="whiteSpace=wrap;html=1;aspect=fixed;fontSize=15;fontColor=#FFFFFF;align=center;fillColor=none;strokeWidth=2;container=0;strokeColor=#6945C1;" parent="FfchCcBJmLkpdb2am3XC-241" vertex="1">
          <mxGeometry width="65" height="65" as="geometry" />
        </mxCell>
        <mxCell id="FfchCcBJmLkpdb2am3XC-243" value="&lt;font style=&quot;font-size: 11px;&quot;&gt;1&lt;/font&gt;" style="text;html=1;align=left;verticalAlign=middle;resizable=0;points=[];autosize=1;fontSize=11;fontColor=#33001A;" parent="FfchCcBJmLkpdb2am3XC-241" vertex="1">
          <mxGeometry x="0.42000000000007276" width="20" height="20" as="geometry" />
        </mxCell>
        <mxCell id="FfchCcBJmLkpdb2am3XC-244" value="&lt;font style=&quot;font-size: 11px;&quot;&gt;AB&lt;/font&gt;" style="text;html=1;align=center;verticalAlign=middle;resizable=0;points=[];autosize=1;fontSize=11;fontColor=#00D4C9;" parent="FfchCcBJmLkpdb2am3XC-241" vertex="1">
          <mxGeometry x="12.5" width="30" height="20" as="geometry" />
        </mxCell>
        <mxCell id="FfchCcBJmLkpdb2am3XC-245" value="08:30~17:30" style="text;html=1;strokeColor=none;fillColor=none;align=center;verticalAlign=middle;whiteSpace=wrap;rounded=0;fontSize=11;" parent="FfchCcBJmLkpdb2am3XC-241" vertex="1">
          <mxGeometry x="12.5" y="20" width="40" height="22.5" as="geometry" />
        </mxCell>
        <mxCell id="FfchCcBJmLkpdb2am3XC-257" value="" style="group" parent="1" vertex="1" connectable="0">
          <mxGeometry x="1990" y="1149" width="65" height="65" as="geometry" />
        </mxCell>
        <mxCell id="FfchCcBJmLkpdb2am3XC-258" value="" style="whiteSpace=wrap;html=1;aspect=fixed;fontSize=15;fontColor=#FFFFFF;align=center;fillColor=none;strokeWidth=2;container=0;strokeColor=#6945C1;" parent="FfchCcBJmLkpdb2am3XC-257" vertex="1">
          <mxGeometry width="65" height="65" as="geometry" />
        </mxCell>
        <mxCell id="FfchCcBJmLkpdb2am3XC-259" value="&lt;font style=&quot;font-size: 11px;&quot;&gt;1&lt;/font&gt;" style="text;html=1;align=left;verticalAlign=middle;resizable=0;points=[];autosize=1;fontSize=11;fontColor=#33001A;" parent="FfchCcBJmLkpdb2am3XC-257" vertex="1">
          <mxGeometry x="0.42000000000007276" width="20" height="20" as="geometry" />
        </mxCell>
        <mxCell id="FfchCcBJmLkpdb2am3XC-260" value="&lt;font style=&quot;font-size: 11px;&quot;&gt;AB&lt;/font&gt;" style="text;html=1;align=center;verticalAlign=middle;resizable=0;points=[];autosize=1;fontSize=11;fontColor=#00D4C9;" parent="FfchCcBJmLkpdb2am3XC-257" vertex="1">
          <mxGeometry x="12.5" width="30" height="20" as="geometry" />
        </mxCell>
        <mxCell id="FfchCcBJmLkpdb2am3XC-261" value="08:30~17:30" style="text;html=1;strokeColor=none;fillColor=none;align=center;verticalAlign=middle;whiteSpace=wrap;rounded=0;fontSize=11;" parent="FfchCcBJmLkpdb2am3XC-257" vertex="1">
          <mxGeometry x="12.5" y="20" width="40" height="22.5" as="geometry" />
        </mxCell>
        <mxCell id="FfchCcBJmLkpdb2am3XC-262" value="" style="group" parent="1" vertex="1" connectable="0">
          <mxGeometry x="1530" y="1149" width="65" height="65" as="geometry" />
        </mxCell>
        <mxCell id="FfchCcBJmLkpdb2am3XC-263" value="" style="whiteSpace=wrap;html=1;aspect=fixed;fontSize=15;fontColor=#FFFFFF;align=center;fillColor=none;strokeWidth=2;container=0;strokeColor=#6945C1;" parent="FfchCcBJmLkpdb2am3XC-262" vertex="1">
          <mxGeometry width="65" height="65" as="geometry" />
        </mxCell>
        <mxCell id="FfchCcBJmLkpdb2am3XC-264" value="&lt;font style=&quot;font-size: 11px;&quot;&gt;1&lt;/font&gt;" style="text;html=1;align=left;verticalAlign=middle;resizable=0;points=[];autosize=1;fontSize=11;fontColor=#33001A;" parent="FfchCcBJmLkpdb2am3XC-262" vertex="1">
          <mxGeometry x="0.42000000000007276" width="20" height="20" as="geometry" />
        </mxCell>
        <mxCell id="FfchCcBJmLkpdb2am3XC-265" value="&lt;font style=&quot;font-size: 11px;&quot;&gt;AB&lt;/font&gt;" style="text;html=1;align=center;verticalAlign=middle;resizable=0;points=[];autosize=1;fontSize=11;fontColor=#00D4C9;" parent="FfchCcBJmLkpdb2am3XC-262" vertex="1">
          <mxGeometry x="12.5" width="30" height="20" as="geometry" />
        </mxCell>
        <mxCell id="FfchCcBJmLkpdb2am3XC-266" value="08:30~17:30" style="text;html=1;strokeColor=none;fillColor=none;align=center;verticalAlign=middle;whiteSpace=wrap;rounded=0;fontSize=11;" parent="FfchCcBJmLkpdb2am3XC-262" vertex="1">
          <mxGeometry x="12.5" y="20" width="40" height="22.5" as="geometry" />
        </mxCell>
        <mxCell id="FfchCcBJmLkpdb2am3XC-267" value="" style="group;fontStyle=1" parent="1" vertex="1" connectable="0">
          <mxGeometry x="1760" y="1223" width="65" height="65" as="geometry" />
        </mxCell>
        <mxCell id="FfchCcBJmLkpdb2am3XC-268" value="" style="whiteSpace=wrap;html=1;aspect=fixed;fontSize=15;fontColor=#FFFFFF;align=center;fillColor=none;strokeWidth=2;container=0;strokeColor=#33001A;" parent="FfchCcBJmLkpdb2am3XC-267" vertex="1">
          <mxGeometry width="65" height="65" as="geometry" />
        </mxCell>
        <mxCell id="FfchCcBJmLkpdb2am3XC-269" value="&lt;font style=&quot;font-size: 11px;&quot;&gt;1&lt;/font&gt;" style="text;html=1;align=left;verticalAlign=middle;resizable=0;points=[];autosize=1;fontSize=11;fontColor=#33001A;" parent="FfchCcBJmLkpdb2am3XC-267" vertex="1">
          <mxGeometry x="0.42000000000007276" width="20" height="20" as="geometry" />
        </mxCell>
        <mxCell id="FfchCcBJmLkpdb2am3XC-270" value="&lt;font style=&quot;font-size: 11px;&quot;&gt;AB&lt;/font&gt;" style="text;html=1;align=center;verticalAlign=middle;resizable=0;points=[];autosize=1;fontSize=11;fontColor=#00D4C9;" parent="FfchCcBJmLkpdb2am3XC-267" vertex="1">
          <mxGeometry x="12.5" width="30" height="20" as="geometry" />
        </mxCell>
        <mxCell id="FfchCcBJmLkpdb2am3XC-271" value="08:30~17:30" style="text;html=1;strokeColor=none;fillColor=none;align=center;verticalAlign=middle;whiteSpace=wrap;rounded=0;fontSize=11;" parent="FfchCcBJmLkpdb2am3XC-267" vertex="1">
          <mxGeometry x="12.5" y="22.499999999999886" width="40" height="20" as="geometry" />
        </mxCell>
        <mxCell id="FfchCcBJmLkpdb2am3XC-272" value="" style="group;fontStyle=1" parent="1" vertex="1" connectable="0">
          <mxGeometry x="1682" y="1223" width="65" height="65" as="geometry" />
        </mxCell>
        <mxCell id="FfchCcBJmLkpdb2am3XC-273" value="" style="whiteSpace=wrap;html=1;aspect=fixed;fontSize=15;fontColor=#FFFFFF;align=center;fillColor=none;strokeWidth=2;container=0;strokeColor=#33001A;" parent="FfchCcBJmLkpdb2am3XC-272" vertex="1">
          <mxGeometry width="65" height="65" as="geometry" />
        </mxCell>
        <mxCell id="FfchCcBJmLkpdb2am3XC-274" value="&lt;font style=&quot;font-size: 11px;&quot;&gt;1&lt;/font&gt;" style="text;html=1;align=left;verticalAlign=middle;resizable=0;points=[];autosize=1;fontSize=11;fontColor=#33001A;" parent="FfchCcBJmLkpdb2am3XC-272" vertex="1">
          <mxGeometry x="0.42000000000007276" width="20" height="20" as="geometry" />
        </mxCell>
        <mxCell id="FfchCcBJmLkpdb2am3XC-275" value="&lt;font style=&quot;font-size: 11px;&quot;&gt;AB&lt;/font&gt;" style="text;html=1;align=center;verticalAlign=middle;resizable=0;points=[];autosize=1;fontSize=11;fontColor=#00D4C9;" parent="FfchCcBJmLkpdb2am3XC-272" vertex="1">
          <mxGeometry x="12.5" width="30" height="20" as="geometry" />
        </mxCell>
        <mxCell id="FfchCcBJmLkpdb2am3XC-276" value="08:30~17:30" style="text;html=1;strokeColor=none;fillColor=none;align=center;verticalAlign=middle;whiteSpace=wrap;rounded=0;fontSize=11;" parent="FfchCcBJmLkpdb2am3XC-272" vertex="1">
          <mxGeometry x="12.5" y="22.499999999999886" width="40" height="20" as="geometry" />
        </mxCell>
        <mxCell id="FfchCcBJmLkpdb2am3XC-277" value="" style="group;fontStyle=1" parent="1" vertex="1" connectable="0">
          <mxGeometry x="1607" y="1223" width="65" height="65" as="geometry" />
        </mxCell>
        <mxCell id="FfchCcBJmLkpdb2am3XC-278" value="" style="whiteSpace=wrap;html=1;aspect=fixed;fontSize=15;fontColor=#FFFFFF;align=center;fillColor=none;strokeWidth=2;container=0;strokeColor=#33001A;" parent="FfchCcBJmLkpdb2am3XC-277" vertex="1">
          <mxGeometry width="65" height="65" as="geometry" />
        </mxCell>
        <mxCell id="FfchCcBJmLkpdb2am3XC-279" value="&lt;font style=&quot;font-size: 11px;&quot;&gt;1&lt;/font&gt;" style="text;html=1;align=left;verticalAlign=middle;resizable=0;points=[];autosize=1;fontSize=11;fontColor=#33001A;" parent="FfchCcBJmLkpdb2am3XC-277" vertex="1">
          <mxGeometry x="0.42000000000007276" width="20" height="20" as="geometry" />
        </mxCell>
        <mxCell id="FfchCcBJmLkpdb2am3XC-280" value="&lt;font style=&quot;font-size: 11px;&quot;&gt;AB&lt;/font&gt;" style="text;html=1;align=center;verticalAlign=middle;resizable=0;points=[];autosize=1;fontSize=11;fontColor=#00D4C9;" parent="FfchCcBJmLkpdb2am3XC-277" vertex="1">
          <mxGeometry x="12.5" width="30" height="20" as="geometry" />
        </mxCell>
        <mxCell id="FfchCcBJmLkpdb2am3XC-281" value="08:30~17:30" style="text;html=1;strokeColor=none;fillColor=none;align=center;verticalAlign=middle;whiteSpace=wrap;rounded=0;fontSize=11;" parent="FfchCcBJmLkpdb2am3XC-277" vertex="1">
          <mxGeometry x="12.5" y="22.499999999999886" width="40" height="20" as="geometry" />
        </mxCell>
        <mxCell id="FfchCcBJmLkpdb2am3XC-282" value="" style="group" parent="1" vertex="1" connectable="0">
          <mxGeometry x="1530" y="1223" width="65" height="65" as="geometry" />
        </mxCell>
        <mxCell id="FfchCcBJmLkpdb2am3XC-283" value="" style="whiteSpace=wrap;html=1;aspect=fixed;fontSize=15;fontColor=#FFFFFF;align=center;fillColor=none;strokeWidth=2;container=0;strokeColor=#6945C1;" parent="FfchCcBJmLkpdb2am3XC-282" vertex="1">
          <mxGeometry width="65" height="65" as="geometry" />
        </mxCell>
        <mxCell id="FfchCcBJmLkpdb2am3XC-284" value="&lt;font style=&quot;font-size: 11px;&quot;&gt;1&lt;/font&gt;" style="text;html=1;align=left;verticalAlign=middle;resizable=0;points=[];autosize=1;fontSize=11;fontColor=#33001A;" parent="FfchCcBJmLkpdb2am3XC-282" vertex="1">
          <mxGeometry x="0.42000000000007276" width="20" height="20" as="geometry" />
        </mxCell>
        <mxCell id="FfchCcBJmLkpdb2am3XC-285" value="&lt;font style=&quot;font-size: 11px;&quot;&gt;AB&lt;/font&gt;" style="text;html=1;align=center;verticalAlign=middle;resizable=0;points=[];autosize=1;fontSize=11;fontColor=#00D4C9;" parent="FfchCcBJmLkpdb2am3XC-282" vertex="1">
          <mxGeometry x="12.5" width="30" height="20" as="geometry" />
        </mxCell>
        <mxCell id="FfchCcBJmLkpdb2am3XC-286" value="08:30~17:30" style="text;html=1;strokeColor=none;fillColor=none;align=center;verticalAlign=middle;whiteSpace=wrap;rounded=0;fontSize=11;" parent="FfchCcBJmLkpdb2am3XC-282" vertex="1">
          <mxGeometry x="12.5" y="20" width="40" height="22.5" as="geometry" />
        </mxCell>
        <mxCell id="FfchCcBJmLkpdb2am3XC-287" value="" style="group;fontStyle=1" parent="1" vertex="1" connectable="0">
          <mxGeometry x="1759" y="1150" width="65" height="65" as="geometry" />
        </mxCell>
        <mxCell id="FfchCcBJmLkpdb2am3XC-288" value="" style="whiteSpace=wrap;html=1;aspect=fixed;fontSize=15;fontColor=#FFFFFF;align=center;fillColor=none;strokeWidth=2;container=0;strokeColor=#33001A;" parent="FfchCcBJmLkpdb2am3XC-287" vertex="1">
          <mxGeometry width="65" height="65" as="geometry" />
        </mxCell>
        <mxCell id="FfchCcBJmLkpdb2am3XC-289" value="&lt;font style=&quot;font-size: 11px;&quot;&gt;1&lt;/font&gt;" style="text;html=1;align=left;verticalAlign=middle;resizable=0;points=[];autosize=1;fontSize=11;fontColor=#33001A;" parent="FfchCcBJmLkpdb2am3XC-287" vertex="1">
          <mxGeometry x="0.42000000000007276" width="20" height="20" as="geometry" />
        </mxCell>
        <mxCell id="FfchCcBJmLkpdb2am3XC-290" value="&lt;font style=&quot;font-size: 11px;&quot;&gt;AB&lt;/font&gt;" style="text;html=1;align=center;verticalAlign=middle;resizable=0;points=[];autosize=1;fontSize=11;fontColor=#00D4C9;" parent="FfchCcBJmLkpdb2am3XC-287" vertex="1">
          <mxGeometry x="12.5" width="30" height="20" as="geometry" />
        </mxCell>
        <mxCell id="FfchCcBJmLkpdb2am3XC-291" value="08:30~17:30" style="text;html=1;strokeColor=none;fillColor=none;align=center;verticalAlign=middle;whiteSpace=wrap;rounded=0;fontSize=11;" parent="FfchCcBJmLkpdb2am3XC-287" vertex="1">
          <mxGeometry x="12.5" y="22.499999999999886" width="40" height="20" as="geometry" />
        </mxCell>
        <mxCell id="FfchCcBJmLkpdb2am3XC-292" value="" style="group;fontStyle=1" parent="1" vertex="1" connectable="0">
          <mxGeometry x="1681" y="1150" width="65" height="65" as="geometry" />
        </mxCell>
        <mxCell id="FfchCcBJmLkpdb2am3XC-293" value="" style="whiteSpace=wrap;html=1;aspect=fixed;fontSize=15;fontColor=#FFFFFF;align=center;fillColor=none;strokeWidth=2;container=0;strokeColor=#33001A;" parent="FfchCcBJmLkpdb2am3XC-292" vertex="1">
          <mxGeometry width="65" height="65" as="geometry" />
        </mxCell>
        <mxCell id="FfchCcBJmLkpdb2am3XC-294" value="&lt;font style=&quot;font-size: 11px;&quot;&gt;1&lt;/font&gt;" style="text;html=1;align=left;verticalAlign=middle;resizable=0;points=[];autosize=1;fontSize=11;fontColor=#33001A;" parent="FfchCcBJmLkpdb2am3XC-292" vertex="1">
          <mxGeometry x="0.42000000000007276" width="20" height="20" as="geometry" />
        </mxCell>
        <mxCell id="FfchCcBJmLkpdb2am3XC-295" value="&lt;font style=&quot;font-size: 11px;&quot;&gt;AB&lt;/font&gt;" style="text;html=1;align=center;verticalAlign=middle;resizable=0;points=[];autosize=1;fontSize=11;fontColor=#00D4C9;" parent="FfchCcBJmLkpdb2am3XC-292" vertex="1">
          <mxGeometry x="12.5" width="30" height="20" as="geometry" />
        </mxCell>
        <mxCell id="FfchCcBJmLkpdb2am3XC-296" value="08:30~17:30" style="text;html=1;strokeColor=none;fillColor=none;align=center;verticalAlign=middle;whiteSpace=wrap;rounded=0;fontSize=11;" parent="FfchCcBJmLkpdb2am3XC-292" vertex="1">
          <mxGeometry x="12.5" y="22.499999999999886" width="40" height="20" as="geometry" />
        </mxCell>
        <mxCell id="FfchCcBJmLkpdb2am3XC-297" value="" style="group;fontStyle=1" parent="1" vertex="1" connectable="0">
          <mxGeometry x="1606" y="1150" width="65" height="65" as="geometry" />
        </mxCell>
        <mxCell id="FfchCcBJmLkpdb2am3XC-298" value="" style="whiteSpace=wrap;html=1;aspect=fixed;fontSize=15;fontColor=#FFFFFF;align=center;fillColor=none;strokeWidth=2;container=0;strokeColor=#33001A;" parent="FfchCcBJmLkpdb2am3XC-297" vertex="1">
          <mxGeometry width="65" height="65" as="geometry" />
        </mxCell>
        <mxCell id="FfchCcBJmLkpdb2am3XC-299" value="&lt;font style=&quot;font-size: 11px;&quot;&gt;1&lt;/font&gt;" style="text;html=1;align=left;verticalAlign=middle;resizable=0;points=[];autosize=1;fontSize=11;fontColor=#33001A;" parent="FfchCcBJmLkpdb2am3XC-297" vertex="1">
          <mxGeometry x="0.42000000000007276" width="20" height="20" as="geometry" />
        </mxCell>
        <mxCell id="FfchCcBJmLkpdb2am3XC-300" value="&lt;font style=&quot;font-size: 11px;&quot;&gt;AB&lt;/font&gt;" style="text;html=1;align=center;verticalAlign=middle;resizable=0;points=[];autosize=1;fontSize=11;fontColor=#00D4C9;" parent="FfchCcBJmLkpdb2am3XC-297" vertex="1">
          <mxGeometry x="12.5" width="30" height="20" as="geometry" />
        </mxCell>
        <mxCell id="FfchCcBJmLkpdb2am3XC-301" value="08:30~17:30" style="text;html=1;strokeColor=none;fillColor=none;align=center;verticalAlign=middle;whiteSpace=wrap;rounded=0;fontSize=11;" parent="FfchCcBJmLkpdb2am3XC-297" vertex="1">
          <mxGeometry x="12.5" y="22.499999999999886" width="40" height="20" as="geometry" />
        </mxCell>
        <mxCell id="FfchCcBJmLkpdb2am3XC-302" value="" style="group;fontStyle=1" parent="1" vertex="1" connectable="0">
          <mxGeometry x="1915" y="1150" width="65" height="65" as="geometry" />
        </mxCell>
        <mxCell id="FfchCcBJmLkpdb2am3XC-303" value="" style="whiteSpace=wrap;html=1;aspect=fixed;fontSize=15;fontColor=#FFFFFF;align=center;fillColor=none;strokeWidth=2;container=0;strokeColor=#33001A;" parent="FfchCcBJmLkpdb2am3XC-302" vertex="1">
          <mxGeometry width="65" height="65" as="geometry" />
        </mxCell>
        <mxCell id="FfchCcBJmLkpdb2am3XC-304" value="&lt;font style=&quot;font-size: 11px;&quot;&gt;1&lt;/font&gt;" style="text;html=1;align=left;verticalAlign=middle;resizable=0;points=[];autosize=1;fontSize=11;fontColor=#33001A;" parent="FfchCcBJmLkpdb2am3XC-302" vertex="1">
          <mxGeometry x="0.42000000000007276" width="20" height="20" as="geometry" />
        </mxCell>
        <mxCell id="FfchCcBJmLkpdb2am3XC-305" value="&lt;font style=&quot;font-size: 11px;&quot;&gt;AB&lt;/font&gt;" style="text;html=1;align=center;verticalAlign=middle;resizable=0;points=[];autosize=1;fontSize=11;fontColor=#00D4C9;" parent="FfchCcBJmLkpdb2am3XC-302" vertex="1">
          <mxGeometry x="12.5" width="30" height="20" as="geometry" />
        </mxCell>
        <mxCell id="FfchCcBJmLkpdb2am3XC-306" value="08:30~17:30" style="text;html=1;strokeColor=none;fillColor=none;align=center;verticalAlign=middle;whiteSpace=wrap;rounded=0;fontSize=11;" parent="FfchCcBJmLkpdb2am3XC-302" vertex="1">
          <mxGeometry x="12.5" y="22.499999999999886" width="40" height="20" as="geometry" />
        </mxCell>
        <mxCell id="FfchCcBJmLkpdb2am3XC-307" value="" style="group;fontStyle=1" parent="1" vertex="1" connectable="0">
          <mxGeometry x="1837" y="1150" width="65" height="65" as="geometry" />
        </mxCell>
        <mxCell id="FfchCcBJmLkpdb2am3XC-308" value="" style="whiteSpace=wrap;html=1;aspect=fixed;fontSize=15;fontColor=#FFFFFF;align=center;fillColor=none;strokeWidth=2;container=0;strokeColor=#33001A;" parent="FfchCcBJmLkpdb2am3XC-307" vertex="1">
          <mxGeometry width="65" height="65" as="geometry" />
        </mxCell>
        <mxCell id="FfchCcBJmLkpdb2am3XC-309" value="&lt;font style=&quot;font-size: 11px;&quot;&gt;1&lt;/font&gt;" style="text;html=1;align=left;verticalAlign=middle;resizable=0;points=[];autosize=1;fontSize=11;fontColor=#33001A;" parent="FfchCcBJmLkpdb2am3XC-307" vertex="1">
          <mxGeometry x="0.42000000000007276" width="20" height="20" as="geometry" />
        </mxCell>
        <mxCell id="FfchCcBJmLkpdb2am3XC-310" value="&lt;font style=&quot;font-size: 11px;&quot;&gt;AB&lt;/font&gt;" style="text;html=1;align=center;verticalAlign=middle;resizable=0;points=[];autosize=1;fontSize=11;fontColor=#00D4C9;" parent="FfchCcBJmLkpdb2am3XC-307" vertex="1">
          <mxGeometry x="12.5" width="30" height="20" as="geometry" />
        </mxCell>
        <mxCell id="FfchCcBJmLkpdb2am3XC-311" value="08:30~17:30" style="text;html=1;strokeColor=none;fillColor=none;align=center;verticalAlign=middle;whiteSpace=wrap;rounded=0;fontSize=11;" parent="FfchCcBJmLkpdb2am3XC-307" vertex="1">
          <mxGeometry x="12.5" y="22.499999999999886" width="40" height="20" as="geometry" />
        </mxCell>
        <mxCell id="FfchCcBJmLkpdb2am3XC-313" value="" style="triangle;whiteSpace=wrap;html=1;strokeWidth=2;fontSize=11;align=center;strokeColor=none;fillColor=#2DB3FF;" parent="1" vertex="1">
          <mxGeometry x="1858.25" y="840" width="22.5" height="30" as="geometry" />
        </mxCell>
        <mxCell id="FfchCcBJmLkpdb2am3XC-314" value="" style="triangle;whiteSpace=wrap;html=1;strokeWidth=2;fontSize=11;align=center;strokeColor=none;fillColor=#2DB3FF;rotation=-180;" parent="1" vertex="1">
          <mxGeometry x="1703.34" y="840" width="22.5" height="30" as="geometry" />
        </mxCell>
        <mxCell id="FfchCcBJmLkpdb2am3XC-315" value="" style="endArrow=classic;html=1;fontSize=11;exitX=1;exitY=0.5;exitDx=0;exitDy=0;entryX=1;entryY=0.5;entryDx=0;entryDy=0;" parent="1" source="FfchCcBJmLkpdb2am3XC-313" target="q6XPmWuKXVtPRQOwv97A-256" edge="1">
          <mxGeometry width="50" height="50" relative="1" as="geometry">
            <mxPoint x="1540" y="1230" as="sourcePoint" />
            <mxPoint x="2060" y="740" as="targetPoint" />
            <Array as="points">
              <mxPoint x="2120" y="855" />
              <mxPoint x="2120" y="760" />
            </Array>
          </mxGeometry>
        </mxCell>
        <mxCell id="FfchCcBJmLkpdb2am3XC-316" value="" style="shape=flexArrow;endArrow=classic;html=1;fontSize=11;fillColor=#ffffff;" parent="1" edge="1">
          <mxGeometry width="50" height="50" relative="1" as="geometry">
            <mxPoint x="2080" y="1070" as="sourcePoint" />
            <mxPoint x="2050" y="1040" as="targetPoint" />
          </mxGeometry>
        </mxCell>
        <mxCell id="FfchCcBJmLkpdb2am3XC-317" value="" style="whiteSpace=wrap;html=1;aspect=fixed;fontSize=15;fontColor=#FFFFFF;align=center;strokeWidth=2;container=0;strokeColor=#6945C1;" parent="1" vertex="1">
          <mxGeometry x="2090" y="1055" width="165" height="165" as="geometry" />
        </mxCell>
        <mxCell id="FfchCcBJmLkpdb2am3XC-318" value="&lt;font style=&quot;font-size: 21px&quot;&gt;9/1&lt;/font&gt;" style="text;html=1;align=center;verticalAlign=middle;resizable=0;points=[];autosize=1;fontSize=11;" parent="1" vertex="1">
          <mxGeometry x="2090" y="1055" width="40" height="20" as="geometry" />
        </mxCell>
        <mxCell id="FfchCcBJmLkpdb2am3XC-320" value="&lt;font color=&quot;#00d4c9&quot; style=&quot;font-size: 15px&quot;&gt;AB 08:30 ~ 17:30&lt;br&gt;(01:00)&amp;nbsp; &amp;nbsp; &amp;nbsp;&amp;nbsp;&lt;br&gt;&lt;/font&gt;" style="text;html=1;strokeColor=none;fillColor=none;align=right;verticalAlign=middle;whiteSpace=wrap;rounded=0;fontSize=15;" parent="1" vertex="1">
          <mxGeometry x="2090" y="1085" width="130" height="20" as="geometry" />
        </mxCell>
        <mxCell id="FfchCcBJmLkpdb2am3XC-321" value="&lt;font style=&quot;font-size: 15px&quot;&gt;&amp;nbsp;08:30 ~ 19:30&lt;br&gt;(01:00)&amp;nbsp; &amp;nbsp; &amp;nbsp;&lt;br&gt;&lt;/font&gt;" style="text;html=1;strokeColor=none;fillColor=none;align=right;verticalAlign=middle;whiteSpace=wrap;rounded=0;fontSize=15;" parent="1" vertex="1">
          <mxGeometry x="2090" y="1117.5" width="130" height="20" as="geometry" />
        </mxCell>
        <mxCell id="FfchCcBJmLkpdb2am3XC-322" value="&lt;font style=&quot;font-size: 15px&quot;&gt;&lt;font color=&quot;#ff1736&quot;&gt;+02:00&lt;/font&gt;&lt;br&gt;&lt;/font&gt;" style="text;html=1;strokeColor=none;fillColor=none;align=right;verticalAlign=middle;whiteSpace=wrap;rounded=0;fontSize=15;" parent="1" vertex="1">
          <mxGeometry x="2090" y="1150" width="130" height="20" as="geometry" />
        </mxCell>
        <mxCell id="FfchCcBJmLkpdb2am3XC-323" value="&lt;font style=&quot;font-size: 15px&quot;&gt;memo&lt;br&gt;&lt;/font&gt;" style="text;html=1;fillColor=none;align=right;verticalAlign=middle;whiteSpace=wrap;rounded=0;fontSize=15;strokeColor=#000000;" parent="1" vertex="1">
          <mxGeometry x="2097.5" y="1172.5" width="130" height="20" as="geometry" />
        </mxCell>
        <mxCell id="FfchCcBJmLkpdb2am3XC-324" value="&lt;font style=&quot;font-size: 30px&quot;&gt;集計値とか置く？&lt;/font&gt;" style="text;html=1;align=center;verticalAlign=middle;resizable=0;points=[];autosize=1;fontSize=15;fontColor=#000000;" parent="1" vertex="1">
          <mxGeometry x="1654" y="1400" width="260" height="30" as="geometry" />
        </mxCell>
        <mxCell id="FfchCcBJmLkpdb2am3XC-325" value="&lt;font style=&quot;font-size: 15px&quot;&gt;&lt;font color=&quot;#ffffff&quot;&gt;打刻修正&lt;/font&gt;&lt;br&gt;&lt;/font&gt;" style="text;html=1;align=right;verticalAlign=middle;whiteSpace=wrap;rounded=0;fontSize=15;fillColor=#2DB3FF;" parent="1" vertex="1">
          <mxGeometry x="2180" y="1195" width="70" height="20" as="geometry" />
        </mxCell>
        <mxCell id="FfchCcBJmLkpdb2am3XC-326" value="" style="rounded=0;whiteSpace=wrap;html=1;strokeColor=#000000;strokeWidth=2;fontSize=15;fontColor=#000000;align=right;fillColor=#FFFFFF;" parent="1" vertex="1">
          <mxGeometry x="1511.9100000000003" y="1634" width="544.17" height="356" as="geometry" />
        </mxCell>
        <mxCell id="FfchCcBJmLkpdb2am3XC-327" value="/attendance/edit?Date=yyyymmdd" style="text;html=1;strokeColor=none;fillColor=none;align=left;verticalAlign=middle;whiteSpace=wrap;rounded=0;fontSize=30;" parent="1" vertex="1">
          <mxGeometry x="1511.91" y="1594" width="478.09" height="40" as="geometry" />
        </mxCell>
        <mxCell id="FfchCcBJmLkpdb2am3XC-328" value="&lt;font style=&quot;font-size: 27px&quot; color=&quot;#ffffff&quot;&gt;&amp;nbsp; &amp;nbsp;ヘッダー&lt;/font&gt;" style="rounded=0;whiteSpace=wrap;html=1;align=left;fillColor=#6945C1;strokeColor=#000000;strokeWidth=2;fontSize=15;fontColor=#000000;" parent="1" vertex="1">
          <mxGeometry x="1511.91" y="1634" width="544.17" height="50" as="geometry" />
        </mxCell>
        <mxCell id="FfchCcBJmLkpdb2am3XC-329" value="" style="endArrow=classic;html=1;fillColor=#ffffff;fontSize=15;fontColor=#000000;exitX=1;exitY=0.5;exitDx=0;exitDy=0;entryX=1;entryY=0.5;entryDx=0;entryDy=0;" parent="1" source="FfchCcBJmLkpdb2am3XC-325" target="FfchCcBJmLkpdb2am3XC-327" edge="1">
          <mxGeometry width="50" height="50" relative="1" as="geometry">
            <mxPoint x="2220" y="1450" as="sourcePoint" />
            <mxPoint x="2270" y="1400" as="targetPoint" />
            <Array as="points">
              <mxPoint x="2320" y="1205" />
              <mxPoint x="2320" y="1614" />
            </Array>
          </mxGeometry>
        </mxCell>
        <mxCell id="FfchCcBJmLkpdb2am3XC-332" value="" style="rounded=0;whiteSpace=wrap;html=1;strokeColor=#33001A;fontSize=15;fontColor=#FFFFFF;align=center;fillColor=#FFFFFF;strokeWidth=2;" parent="1" vertex="1">
          <mxGeometry x="1630" y="1745" width="70" height="20" as="geometry" />
        </mxCell>
        <mxCell id="FfchCcBJmLkpdb2am3XC-333" value="出勤時刻" style="text;html=1;strokeColor=none;fillColor=none;align=right;verticalAlign=middle;whiteSpace=wrap;rounded=0;fontSize=15;fontColor=#33001A;" parent="1" vertex="1">
          <mxGeometry x="1535" y="1745" width="80" height="20" as="geometry" />
        </mxCell>
        <mxCell id="FfchCcBJmLkpdb2am3XC-334" value="" style="rounded=0;whiteSpace=wrap;html=1;strokeColor=#33001A;fontSize=15;fontColor=#FFFFFF;align=center;fillColor=#FFFFFF;strokeWidth=2;" parent="1" vertex="1">
          <mxGeometry x="1720" y="1745" width="70" height="20" as="geometry" />
        </mxCell>
        <mxCell id="FfchCcBJmLkpdb2am3XC-335" value="時" style="text;html=1;strokeColor=none;fillColor=none;align=center;verticalAlign=middle;whiteSpace=wrap;rounded=0;fontSize=15;fontColor=#33001A;" parent="1" vertex="1">
          <mxGeometry x="1695" y="1745" width="30" height="20" as="geometry" />
        </mxCell>
        <mxCell id="FfchCcBJmLkpdb2am3XC-336" value="分" style="text;html=1;strokeColor=none;fillColor=none;align=center;verticalAlign=middle;whiteSpace=wrap;rounded=0;fontSize=15;fontColor=#33001A;" parent="1" vertex="1">
          <mxGeometry x="1787.0900000000001" y="1745" width="30" height="20" as="geometry" />
        </mxCell>
        <mxCell id="FfchCcBJmLkpdb2am3XC-337" value="" style="rounded=0;whiteSpace=wrap;html=1;strokeColor=#33001A;fontSize=15;fontColor=#FFFFFF;align=center;fillColor=#FFFFFF;strokeWidth=2;" parent="1" vertex="1">
          <mxGeometry x="1630" y="1775" width="70" height="20" as="geometry" />
        </mxCell>
        <mxCell id="FfchCcBJmLkpdb2am3XC-338" value="退勤時刻" style="text;html=1;strokeColor=none;fillColor=none;align=right;verticalAlign=middle;whiteSpace=wrap;rounded=0;fontSize=15;fontColor=#33001A;" parent="1" vertex="1">
          <mxGeometry x="1535" y="1775" width="80" height="20" as="geometry" />
        </mxCell>
        <mxCell id="FfchCcBJmLkpdb2am3XC-339" value="" style="rounded=0;whiteSpace=wrap;html=1;strokeColor=#33001A;fontSize=15;fontColor=#FFFFFF;align=center;fillColor=#FFFFFF;strokeWidth=2;" parent="1" vertex="1">
          <mxGeometry x="1720" y="1775" width="70" height="20" as="geometry" />
        </mxCell>
        <mxCell id="FfchCcBJmLkpdb2am3XC-340" value="時" style="text;html=1;strokeColor=none;fillColor=none;align=center;verticalAlign=middle;whiteSpace=wrap;rounded=0;fontSize=15;fontColor=#33001A;" parent="1" vertex="1">
          <mxGeometry x="1695" y="1775" width="30" height="20" as="geometry" />
        </mxCell>
        <mxCell id="FfchCcBJmLkpdb2am3XC-341" value="分" style="text;html=1;strokeColor=none;fillColor=none;align=center;verticalAlign=middle;whiteSpace=wrap;rounded=0;fontSize=15;fontColor=#33001A;" parent="1" vertex="1">
          <mxGeometry x="1787.0900000000001" y="1775" width="30" height="20" as="geometry" />
        </mxCell>
        <mxCell id="FfchCcBJmLkpdb2am3XC-342" value="" style="rounded=0;whiteSpace=wrap;html=1;strokeColor=#33001A;fontSize=15;fontColor=#FFFFFF;align=center;fillColor=#FFFFFF;strokeWidth=2;" parent="1" vertex="1">
          <mxGeometry x="1630" y="1805" width="70" height="20" as="geometry" />
        </mxCell>
        <mxCell id="FfchCcBJmLkpdb2am3XC-343" value="休憩時間合計" style="text;html=1;strokeColor=none;fillColor=none;align=right;verticalAlign=middle;whiteSpace=wrap;rounded=0;fontSize=15;fontColor=#33001A;" parent="1" vertex="1">
          <mxGeometry x="1520" y="1805" width="100" height="20" as="geometry" />
        </mxCell>
        <mxCell id="FfchCcBJmLkpdb2am3XC-344" value="" style="rounded=0;whiteSpace=wrap;html=1;strokeColor=#33001A;fontSize=15;fontColor=#FFFFFF;align=center;fillColor=#FFFFFF;strokeWidth=2;" parent="1" vertex="1">
          <mxGeometry x="1740" y="1805" width="70" height="20" as="geometry" />
        </mxCell>
        <mxCell id="FfchCcBJmLkpdb2am3XC-345" value="時間" style="text;html=1;strokeColor=none;fillColor=none;align=center;verticalAlign=middle;whiteSpace=wrap;rounded=0;fontSize=15;fontColor=#33001A;" parent="1" vertex="1">
          <mxGeometry x="1700" y="1805" width="35" height="20" as="geometry" />
        </mxCell>
        <mxCell id="FfchCcBJmLkpdb2am3XC-346" value="分" style="text;html=1;strokeColor=none;fillColor=none;align=center;verticalAlign=middle;whiteSpace=wrap;rounded=0;fontSize=15;fontColor=#33001A;" parent="1" vertex="1">
          <mxGeometry x="1807.0900000000001" y="1805" width="30" height="20" as="geometry" />
        </mxCell>
        <mxCell id="FfchCcBJmLkpdb2am3XC-347" value="" style="rounded=0;whiteSpace=wrap;html=1;strokeColor=#33001A;fontSize=15;fontColor=#FFFFFF;align=center;fillColor=#FFFFFF;strokeWidth=2;" parent="1" vertex="1">
          <mxGeometry x="1630" y="1835" width="70" height="20" as="geometry" />
        </mxCell>
        <mxCell id="FfchCcBJmLkpdb2am3XC-348" value="深夜休憩時間" style="text;html=1;strokeColor=none;fillColor=none;align=right;verticalAlign=middle;whiteSpace=wrap;rounded=0;fontSize=15;fontColor=#33001A;" parent="1" vertex="1">
          <mxGeometry x="1520" y="1835" width="100" height="20" as="geometry" />
        </mxCell>
        <mxCell id="FfchCcBJmLkpdb2am3XC-349" value="" style="rounded=0;whiteSpace=wrap;html=1;strokeColor=#33001A;fontSize=15;fontColor=#FFFFFF;align=center;fillColor=#FFFFFF;strokeWidth=2;" parent="1" vertex="1">
          <mxGeometry x="1740" y="1835" width="70" height="20" as="geometry" />
        </mxCell>
        <mxCell id="FfchCcBJmLkpdb2am3XC-350" value="時間" style="text;html=1;strokeColor=none;fillColor=none;align=center;verticalAlign=middle;whiteSpace=wrap;rounded=0;fontSize=15;fontColor=#33001A;" parent="1" vertex="1">
          <mxGeometry x="1700" y="1835" width="35" height="20" as="geometry" />
        </mxCell>
        <mxCell id="FfchCcBJmLkpdb2am3XC-351" value="分" style="text;html=1;strokeColor=none;fillColor=none;align=center;verticalAlign=middle;whiteSpace=wrap;rounded=0;fontSize=15;fontColor=#33001A;" parent="1" vertex="1">
          <mxGeometry x="1807.0900000000001" y="1835" width="30" height="20" as="geometry" />
        </mxCell>
        <mxCell id="FfchCcBJmLkpdb2am3XC-352" value="&lt;font style=&quot;font-size: 9px&quot;&gt;- 1.0 Hr&lt;/font&gt;" style="ellipse;html=1;aspect=fixed;strokeWidth=2;fontSize=15;fontColor=#FFFFFF;align=center;fillColor=#2DB3FF;strokeColor=none;spacing=0;verticalAlign=middle;whiteSpace=wrap;textDirection=ltr;" parent="1" vertex="1">
          <mxGeometry x="1810" y="1725" width="40" height="40" as="geometry" />
        </mxCell>
        <mxCell id="FfchCcBJmLkpdb2am3XC-353" value="&lt;font style=&quot;font-size: 9px&quot;&gt;+ 1.0 Hr&lt;/font&gt;" style="ellipse;html=1;aspect=fixed;strokeWidth=2;fontSize=15;fontColor=#FFFFFF;align=center;fillColor=#2DB3FF;strokeColor=none;spacing=0;verticalAlign=middle;whiteSpace=wrap;textDirection=ltr;" parent="1" vertex="1">
          <mxGeometry x="1850" y="1725" width="40" height="40" as="geometry" />
        </mxCell>
        <mxCell id="FfchCcBJmLkpdb2am3XC-354" value="&lt;font style=&quot;font-size: 9px&quot;&gt;- 5 Min&lt;/font&gt;" style="ellipse;html=1;aspect=fixed;strokeWidth=2;fontSize=15;fontColor=#FFFFFF;align=center;fillColor=#2DB3FF;strokeColor=none;spacing=0;verticalAlign=middle;whiteSpace=wrap;textDirection=ltr;" parent="1" vertex="1">
          <mxGeometry x="1890" y="1725" width="40" height="40" as="geometry" />
        </mxCell>
        <mxCell id="FfchCcBJmLkpdb2am3XC-355" value="&lt;font style=&quot;font-size: 9px&quot;&gt;- 30 Min&lt;/font&gt;" style="ellipse;html=1;aspect=fixed;strokeWidth=2;fontSize=15;fontColor=#FFFFFF;align=center;fillColor=#2DB3FF;strokeColor=none;spacing=0;verticalAlign=middle;whiteSpace=wrap;textDirection=ltr;" parent="1" vertex="1">
          <mxGeometry x="1931" y="1725" width="40" height="40" as="geometry" />
        </mxCell>
        <mxCell id="FfchCcBJmLkpdb2am3XC-356" value="&lt;font style=&quot;font-size: 9px&quot;&gt;+ 5 Min&lt;/font&gt;" style="ellipse;html=1;aspect=fixed;strokeWidth=2;fontSize=15;fontColor=#FFFFFF;align=center;fillColor=#2DB3FF;strokeColor=none;spacing=0;verticalAlign=middle;whiteSpace=wrap;textDirection=ltr;" parent="1" vertex="1">
          <mxGeometry x="1969.5" y="1725" width="40" height="40" as="geometry" />
        </mxCell>
        <mxCell id="FfchCcBJmLkpdb2am3XC-357" value="&lt;font style=&quot;font-size: 9px&quot;&gt;+30 Min&lt;/font&gt;" style="ellipse;html=1;aspect=fixed;strokeWidth=2;fontSize=15;fontColor=#FFFFFF;align=center;fillColor=#2DB3FF;strokeColor=none;spacing=0;verticalAlign=middle;whiteSpace=wrap;textDirection=ltr;" parent="1" vertex="1">
          <mxGeometry x="2010.5" y="1725" width="40" height="40" as="geometry" />
        </mxCell>
        <mxCell id="FfchCcBJmLkpdb2am3XC-358" value="更新" style="rounded=0;whiteSpace=wrap;html=1;fillColor=#2DB3FF;fontSize=15;align=center;fontColor=#FFFFFF;strokeColor=none;" parent="1" vertex="1">
          <mxGeometry x="1787.0900000000001" y="1885" width="55" height="25" as="geometry" />
        </mxCell>
        <mxCell id="FfchCcBJmLkpdb2am3XC-359" value="" style="endArrow=classic;html=1;fillColor=#ffffff;fontSize=15;fontColor=#000000;exitX=0;exitY=0.5;exitDx=0;exitDy=0;entryX=0;entryY=0.5;entryDx=0;entryDy=0;" parent="1" source="FfchCcBJmLkpdb2am3XC-358" target="q6XPmWuKXVtPRQOwv97A-256" edge="1">
          <mxGeometry width="50" height="50" relative="1" as="geometry">
            <mxPoint x="1510" y="1570" as="sourcePoint" />
            <mxPoint x="1470" y="800" as="targetPoint" />
            <Array as="points">
              <mxPoint x="1480" y="1898" />
              <mxPoint x="1480" y="760" />
            </Array>
          </mxGeometry>
        </mxCell>
        <mxCell id="FfchCcBJmLkpdb2am3XC-360" value="&lt;span style=&quot;font-size: 30px&quot;&gt;/.../Editは同一画面に置く？&lt;br&gt;Ajax使えばいい感じにできそう&lt;/span&gt;" style="text;html=1;align=center;verticalAlign=middle;resizable=0;points=[];autosize=1;fontSize=15;fontColor=#000000;" parent="1" vertex="1">
          <mxGeometry x="862.91" y="486" width="430" height="50" as="geometry" />
        </mxCell>
        <mxCell id="FfchCcBJmLkpdb2am3XC-361" value="" style="rounded=0;whiteSpace=wrap;html=1;strokeColor=#000000;strokeWidth=2;fillColor=#FFFFFF;fontSize=15;fontColor=#000000;align=right;" parent="1" vertex="1">
          <mxGeometry x="2440" y="779" width="544.17" height="356" as="geometry" />
        </mxCell>
        <mxCell id="FfchCcBJmLkpdb2am3XC-362" value="/siftassign?Month=yyyymm" style="text;html=1;strokeColor=none;fillColor=none;align=left;verticalAlign=middle;whiteSpace=wrap;rounded=0;fontSize=30;" parent="1" vertex="1">
          <mxGeometry x="2440" y="739" width="431" height="40" as="geometry" />
        </mxCell>
        <mxCell id="FfchCcBJmLkpdb2am3XC-363" value="&lt;font style=&quot;font-size: 27px&quot; color=&quot;#ffffff&quot;&gt;&amp;nbsp; &amp;nbsp;ヘッダー&lt;/font&gt;" style="rounded=0;whiteSpace=wrap;html=1;align=left;fillColor=#6945C1;strokeColor=#000000;strokeWidth=2;fontSize=15;fontColor=#000000;" parent="1" vertex="1">
          <mxGeometry x="2440" y="779" width="544.17" height="50" as="geometry" />
        </mxCell>
        <mxCell id="FfchCcBJmLkpdb2am3XC-492" value="&lt;font style=&quot;font-size: 20px&quot;&gt;2020/09&lt;/font&gt;" style="text;html=1;strokeColor=none;fillColor=none;align=center;verticalAlign=middle;whiteSpace=wrap;rounded=0;" parent="1" vertex="1">
          <mxGeometry x="2674.5299999999997" y="842.5" width="70" height="20" as="geometry" />
        </mxCell>
        <mxCell id="FfchCcBJmLkpdb2am3XC-620" value="1" style="whiteSpace=wrap;html=1;aspect=fixed;strokeColor=#000000;strokeWidth=2;fontSize=15;fontColor=#000000;align=center;fillColor=#00D4C9;" parent="1" vertex="1">
          <mxGeometry x="2740" y="890" width="30" height="30" as="geometry" />
        </mxCell>
        <mxCell id="FfchCcBJmLkpdb2am3XC-621" value="2" style="whiteSpace=wrap;html=1;aspect=fixed;strokeColor=#000000;strokeWidth=2;fontSize=15;fontColor=#000000;align=center;fillColor=#00D4C9;" parent="1" vertex="1">
          <mxGeometry x="2790.5" y="890" width="30" height="30" as="geometry" />
        </mxCell>
        <mxCell id="FfchCcBJmLkpdb2am3XC-622" value="3" style="whiteSpace=wrap;html=1;aspect=fixed;strokeColor=#000000;strokeWidth=2;fontSize=15;fontColor=#000000;align=center;fillColor=#00D4C9;" parent="1" vertex="1">
          <mxGeometry x="2840" y="890" width="30" height="30" as="geometry" />
        </mxCell>
        <mxCell id="FfchCcBJmLkpdb2am3XC-623" value="4" style="whiteSpace=wrap;html=1;aspect=fixed;strokeColor=#000000;strokeWidth=2;fontSize=15;fontColor=#000000;align=center;fillColor=#EDAE00;" parent="1" vertex="1">
          <mxGeometry x="2890.5" y="890" width="30" height="30" as="geometry" />
        </mxCell>
        <mxCell id="FfchCcBJmLkpdb2am3XC-624" value="5" style="whiteSpace=wrap;html=1;aspect=fixed;strokeWidth=2;fillColor=#FFFFFF;fontSize=15;fontColor=#000000;align=center;strokeColor=#6945C1;" parent="1" vertex="1">
          <mxGeometry x="2940" y="890" width="30" height="30" as="geometry" />
        </mxCell>
        <mxCell id="FfchCcBJmLkpdb2am3XC-626" value="8" style="whiteSpace=wrap;html=1;aspect=fixed;strokeColor=#000000;strokeWidth=2;fontSize=15;fontColor=#000000;align=center;fillColor=#EDAE00;" parent="1" vertex="1">
          <mxGeometry x="2740" y="932" width="30" height="30" as="geometry" />
        </mxCell>
        <mxCell id="FfchCcBJmLkpdb2am3XC-627" value="9" style="whiteSpace=wrap;html=1;aspect=fixed;strokeColor=#000000;strokeWidth=2;fillColor=#FFFFFF;fontSize=15;fontColor=#000000;align=center;" parent="1" vertex="1">
          <mxGeometry x="2790.5" y="932" width="30" height="30" as="geometry" />
        </mxCell>
        <mxCell id="FfchCcBJmLkpdb2am3XC-628" value="10" style="whiteSpace=wrap;html=1;aspect=fixed;strokeColor=#000000;strokeWidth=2;fillColor=#FFFFFF;fontSize=15;fontColor=#000000;align=center;" parent="1" vertex="1">
          <mxGeometry x="2840" y="932" width="30" height="30" as="geometry" />
        </mxCell>
        <mxCell id="FfchCcBJmLkpdb2am3XC-629" value="11" style="whiteSpace=wrap;html=1;aspect=fixed;strokeColor=#000000;strokeWidth=2;fillColor=#FFFFFF;fontSize=15;fontColor=#000000;align=center;" parent="1" vertex="1">
          <mxGeometry x="2890.5" y="932" width="30" height="30" as="geometry" />
        </mxCell>
        <mxCell id="FfchCcBJmLkpdb2am3XC-630" value="12" style="whiteSpace=wrap;html=1;aspect=fixed;strokeWidth=2;fillColor=#FFFFFF;fontSize=15;fontColor=#000000;align=center;strokeColor=#6945C1;" parent="1" vertex="1">
          <mxGeometry x="2940" y="932" width="30" height="30" as="geometry" />
        </mxCell>
        <mxCell id="FfchCcBJmLkpdb2am3XC-631" value="6" style="whiteSpace=wrap;html=1;aspect=fixed;strokeWidth=2;fillColor=#FFFFFF;fontSize=15;fontColor=#000000;align=center;strokeColor=#6945C1;" parent="1" vertex="1">
          <mxGeometry x="2640" y="932.57" width="30" height="30" as="geometry" />
        </mxCell>
        <mxCell id="FfchCcBJmLkpdb2am3XC-632" value="7" style="whiteSpace=wrap;html=1;aspect=fixed;strokeColor=#000000;strokeWidth=2;fontSize=15;fontColor=#000000;align=center;fillColor=#EDAE00;" parent="1" vertex="1">
          <mxGeometry x="2690.5" y="932.57" width="30" height="30" as="geometry" />
        </mxCell>
        <mxCell id="FfchCcBJmLkpdb2am3XC-633" value="15" style="whiteSpace=wrap;html=1;aspect=fixed;strokeColor=#000000;strokeWidth=2;fillColor=#FFFFFF;fontSize=15;fontColor=#000000;align=center;" parent="1" vertex="1">
          <mxGeometry x="2740.5" y="974.93" width="30" height="30" as="geometry" />
        </mxCell>
        <mxCell id="FfchCcBJmLkpdb2am3XC-634" value="16" style="whiteSpace=wrap;html=1;aspect=fixed;strokeColor=#000000;strokeWidth=2;fillColor=#FFFFFF;fontSize=15;fontColor=#000000;align=center;" parent="1" vertex="1">
          <mxGeometry x="2791" y="974.93" width="30" height="30" as="geometry" />
        </mxCell>
        <mxCell id="FfchCcBJmLkpdb2am3XC-635" value="17" style="whiteSpace=wrap;html=1;aspect=fixed;strokeColor=#000000;strokeWidth=2;fillColor=#FFFFFF;fontSize=15;fontColor=#000000;align=center;" parent="1" vertex="1">
          <mxGeometry x="2840.5" y="974.93" width="30" height="30" as="geometry" />
        </mxCell>
        <mxCell id="FfchCcBJmLkpdb2am3XC-636" value="18" style="whiteSpace=wrap;html=1;aspect=fixed;strokeColor=#000000;strokeWidth=2;fillColor=#FFFFFF;fontSize=15;fontColor=#000000;align=center;" parent="1" vertex="1">
          <mxGeometry x="2891" y="974.93" width="30" height="30" as="geometry" />
        </mxCell>
        <mxCell id="FfchCcBJmLkpdb2am3XC-637" value="19" style="whiteSpace=wrap;html=1;aspect=fixed;strokeWidth=2;fillColor=#FFFFFF;fontSize=15;fontColor=#000000;align=center;strokeColor=#6945C1;" parent="1" vertex="1">
          <mxGeometry x="2940.5" y="974.93" width="30" height="30" as="geometry" />
        </mxCell>
        <mxCell id="FfchCcBJmLkpdb2am3XC-638" value="13" style="whiteSpace=wrap;html=1;aspect=fixed;strokeWidth=2;fillColor=#FFFFFF;fontSize=15;fontColor=#000000;align=center;strokeColor=#6945C1;" parent="1" vertex="1">
          <mxGeometry x="2640.5" y="975.5" width="30" height="30" as="geometry" />
        </mxCell>
        <mxCell id="FfchCcBJmLkpdb2am3XC-639" value="14" style="whiteSpace=wrap;html=1;aspect=fixed;strokeColor=#000000;strokeWidth=2;fillColor=#FFFFFF;fontSize=15;fontColor=#000000;align=center;" parent="1" vertex="1">
          <mxGeometry x="2691" y="975.5" width="30" height="30" as="geometry" />
        </mxCell>
        <mxCell id="FfchCcBJmLkpdb2am3XC-640" value="22" style="whiteSpace=wrap;html=1;aspect=fixed;strokeColor=#000000;strokeWidth=2;fillColor=#FFFFFF;fontSize=15;fontColor=#000000;align=center;" parent="1" vertex="1">
          <mxGeometry x="2740.25" y="1022.5" width="30" height="30" as="geometry" />
        </mxCell>
        <mxCell id="FfchCcBJmLkpdb2am3XC-641" value="23" style="whiteSpace=wrap;html=1;aspect=fixed;strokeColor=#000000;strokeWidth=2;fillColor=#FFFFFF;fontSize=15;fontColor=#000000;align=center;" parent="1" vertex="1">
          <mxGeometry x="2790.75" y="1022.5" width="30" height="30" as="geometry" />
        </mxCell>
        <mxCell id="FfchCcBJmLkpdb2am3XC-642" value="24" style="whiteSpace=wrap;html=1;aspect=fixed;strokeColor=#000000;strokeWidth=2;fillColor=#FFFFFF;fontSize=15;fontColor=#000000;align=center;" parent="1" vertex="1">
          <mxGeometry x="2840.25" y="1022.5" width="30" height="30" as="geometry" />
        </mxCell>
        <mxCell id="FfchCcBJmLkpdb2am3XC-643" value="25" style="whiteSpace=wrap;html=1;aspect=fixed;strokeColor=#000000;strokeWidth=2;fillColor=#FFFFFF;fontSize=15;fontColor=#000000;align=center;" parent="1" vertex="1">
          <mxGeometry x="2890.75" y="1022.5" width="30" height="30" as="geometry" />
        </mxCell>
        <mxCell id="FfchCcBJmLkpdb2am3XC-644" value="26" style="whiteSpace=wrap;html=1;aspect=fixed;strokeWidth=2;fillColor=#FFFFFF;fontSize=15;fontColor=#000000;align=center;strokeColor=#6945C1;" parent="1" vertex="1">
          <mxGeometry x="2940.25" y="1022.5" width="30" height="30" as="geometry" />
        </mxCell>
        <mxCell id="FfchCcBJmLkpdb2am3XC-645" value="20" style="whiteSpace=wrap;html=1;aspect=fixed;strokeWidth=2;fillColor=#FFFFFF;fontSize=15;fontColor=#000000;align=center;strokeColor=#6945C1;" parent="1" vertex="1">
          <mxGeometry x="2640.25" y="1023.07" width="30" height="30" as="geometry" />
        </mxCell>
        <mxCell id="FfchCcBJmLkpdb2am3XC-646" value="21" style="whiteSpace=wrap;html=1;aspect=fixed;strokeColor=#000000;strokeWidth=2;fillColor=#FFFFFF;fontSize=15;fontColor=#000000;align=center;" parent="1" vertex="1">
          <mxGeometry x="2690.75" y="1023.07" width="30" height="30" as="geometry" />
        </mxCell>
        <mxCell id="FfchCcBJmLkpdb2am3XC-647" value="29" style="whiteSpace=wrap;html=1;aspect=fixed;strokeColor=#000000;strokeWidth=2;fillColor=#FFFFFF;fontSize=15;fontColor=#000000;align=center;" parent="1" vertex="1">
          <mxGeometry x="2740.75" y="1065.4299999999998" width="30" height="30" as="geometry" />
        </mxCell>
        <mxCell id="FfchCcBJmLkpdb2am3XC-648" value="30" style="whiteSpace=wrap;html=1;aspect=fixed;strokeColor=#000000;strokeWidth=2;fillColor=#FFFFFF;fontSize=15;fontColor=#000000;align=center;" parent="1" vertex="1">
          <mxGeometry x="2791.25" y="1065.4299999999998" width="30" height="30" as="geometry" />
        </mxCell>
        <mxCell id="FfchCcBJmLkpdb2am3XC-652" value="27" style="whiteSpace=wrap;html=1;aspect=fixed;strokeWidth=2;fillColor=#FFFFFF;fontSize=15;fontColor=#000000;align=center;strokeColor=#6945C1;" parent="1" vertex="1">
          <mxGeometry x="2640.75" y="1066" width="30" height="30" as="geometry" />
        </mxCell>
        <mxCell id="FfchCcBJmLkpdb2am3XC-653" value="28" style="whiteSpace=wrap;html=1;aspect=fixed;strokeColor=#000000;strokeWidth=2;fillColor=#FFFFFF;fontSize=15;fontColor=#000000;align=center;" parent="1" vertex="1">
          <mxGeometry x="2691.25" y="1066" width="30" height="30" as="geometry" />
        </mxCell>
        <mxCell id="FfchCcBJmLkpdb2am3XC-654" value="" style="shape=table;html=1;whiteSpace=wrap;startSize=0;container=1;collapsible=0;childLayout=tableLayout;strokeColor=none;" parent="1" vertex="1">
          <mxGeometry x="2450" y="924.96" width="160" height="119.93" as="geometry" />
        </mxCell>
        <mxCell id="FfchCcBJmLkpdb2am3XC-655" value="" style="shape=partialRectangle;html=1;whiteSpace=wrap;collapsible=0;dropTarget=0;pointerEvents=0;fillColor=none;top=0;left=0;bottom=0;right=0;points=[[0,0.5],[1,0.5]];portConstraint=eastwest;" parent="FfchCcBJmLkpdb2am3XC-654" vertex="1">
          <mxGeometry width="160" height="30" as="geometry" />
        </mxCell>
        <mxCell id="FfchCcBJmLkpdb2am3XC-672" value="&lt;font color=&quot;#00d4c9&quot;&gt;●&lt;/font&gt;" style="shape=partialRectangle;html=1;whiteSpace=wrap;connectable=0;overflow=hidden;fillColor=none;top=0;left=0;bottom=0;right=0;" parent="FfchCcBJmLkpdb2am3XC-655" vertex="1">
          <mxGeometry width="30" height="30" as="geometry" />
        </mxCell>
        <mxCell id="FfchCcBJmLkpdb2am3XC-656" value="@" style="shape=partialRectangle;html=1;whiteSpace=wrap;connectable=0;overflow=hidden;fillColor=none;top=0;left=0;bottom=0;right=0;" parent="FfchCcBJmLkpdb2am3XC-655" vertex="1">
          <mxGeometry x="30" width="37" height="30" as="geometry" />
        </mxCell>
        <mxCell id="FfchCcBJmLkpdb2am3XC-657" value="08:30" style="shape=partialRectangle;html=1;whiteSpace=wrap;connectable=0;overflow=hidden;fillColor=none;top=0;left=0;bottom=0;right=0;" parent="FfchCcBJmLkpdb2am3XC-655" vertex="1">
          <mxGeometry x="67" width="51" height="30" as="geometry" />
        </mxCell>
        <mxCell id="FfchCcBJmLkpdb2am3XC-658" value="17:30" style="shape=partialRectangle;html=1;whiteSpace=wrap;connectable=0;overflow=hidden;fillColor=none;top=0;left=0;bottom=0;right=0;" parent="FfchCcBJmLkpdb2am3XC-655" vertex="1">
          <mxGeometry x="118" width="42" height="30" as="geometry" />
        </mxCell>
        <mxCell id="FfchCcBJmLkpdb2am3XC-659" value="" style="shape=partialRectangle;html=1;whiteSpace=wrap;collapsible=0;dropTarget=0;pointerEvents=0;fillColor=none;top=0;left=0;bottom=0;right=0;points=[[0,0.5],[1,0.5]];portConstraint=eastwest;" parent="FfchCcBJmLkpdb2am3XC-654" vertex="1">
          <mxGeometry y="30" width="160" height="30" as="geometry" />
        </mxCell>
        <mxCell id="FfchCcBJmLkpdb2am3XC-673" value="&lt;span&gt;&lt;font color=&quot;#2db3ff&quot;&gt;●&lt;/font&gt;&lt;/span&gt;" style="shape=partialRectangle;html=1;whiteSpace=wrap;connectable=0;overflow=hidden;fillColor=none;top=0;left=0;bottom=0;right=0;" parent="FfchCcBJmLkpdb2am3XC-659" vertex="1">
          <mxGeometry width="30" height="30" as="geometry" />
        </mxCell>
        <mxCell id="FfchCcBJmLkpdb2am3XC-660" value="AB" style="shape=partialRectangle;html=1;whiteSpace=wrap;connectable=0;overflow=hidden;fillColor=none;top=0;left=0;bottom=0;right=0;" parent="FfchCcBJmLkpdb2am3XC-659" vertex="1">
          <mxGeometry x="30" width="37" height="30" as="geometry" />
        </mxCell>
        <mxCell id="FfchCcBJmLkpdb2am3XC-661" value="08:30" style="shape=partialRectangle;html=1;whiteSpace=wrap;connectable=0;overflow=hidden;fillColor=none;top=0;left=0;bottom=0;right=0;" parent="FfchCcBJmLkpdb2am3XC-659" vertex="1">
          <mxGeometry x="67" width="51" height="30" as="geometry" />
        </mxCell>
        <mxCell id="FfchCcBJmLkpdb2am3XC-662" value="20:30" style="shape=partialRectangle;html=1;whiteSpace=wrap;connectable=0;overflow=hidden;fillColor=none;top=0;left=0;bottom=0;right=0;" parent="FfchCcBJmLkpdb2am3XC-659" vertex="1">
          <mxGeometry x="118" width="42" height="30" as="geometry" />
        </mxCell>
        <mxCell id="FfchCcBJmLkpdb2am3XC-663" value="" style="shape=partialRectangle;html=1;whiteSpace=wrap;collapsible=0;dropTarget=0;pointerEvents=0;fillColor=none;top=0;left=0;bottom=0;right=0;points=[[0,0.5],[1,0.5]];portConstraint=eastwest;" parent="FfchCcBJmLkpdb2am3XC-654" vertex="1">
          <mxGeometry y="60" width="160" height="31" as="geometry" />
        </mxCell>
        <mxCell id="FfchCcBJmLkpdb2am3XC-674" value="&lt;span&gt;&lt;font color=&quot;#6945c1&quot;&gt;●&lt;/font&gt;&lt;/span&gt;" style="shape=partialRectangle;html=1;whiteSpace=wrap;connectable=0;overflow=hidden;fillColor=none;top=0;left=0;bottom=0;right=0;" parent="FfchCcBJmLkpdb2am3XC-663" vertex="1">
          <mxGeometry width="30" height="31" as="geometry" />
        </mxCell>
        <mxCell id="FfchCcBJmLkpdb2am3XC-664" value="BC" style="shape=partialRectangle;html=1;whiteSpace=wrap;connectable=0;overflow=hidden;fillColor=none;top=0;left=0;bottom=0;right=0;" parent="FfchCcBJmLkpdb2am3XC-663" vertex="1">
          <mxGeometry x="30" width="37" height="31" as="geometry" />
        </mxCell>
        <mxCell id="FfchCcBJmLkpdb2am3XC-665" value="20:30" style="shape=partialRectangle;html=1;whiteSpace=wrap;connectable=0;overflow=hidden;fillColor=none;top=0;left=0;bottom=0;right=0;" parent="FfchCcBJmLkpdb2am3XC-663" vertex="1">
          <mxGeometry x="67" width="51" height="31" as="geometry" />
        </mxCell>
        <mxCell id="FfchCcBJmLkpdb2am3XC-666" value="24:00" style="shape=partialRectangle;html=1;whiteSpace=wrap;connectable=0;overflow=hidden;fillColor=none;top=0;left=0;bottom=0;right=0;" parent="FfchCcBJmLkpdb2am3XC-663" vertex="1">
          <mxGeometry x="118" width="42" height="31" as="geometry" />
        </mxCell>
        <mxCell id="FfchCcBJmLkpdb2am3XC-667" value="" style="shape=partialRectangle;html=1;whiteSpace=wrap;collapsible=0;dropTarget=0;pointerEvents=0;fillColor=none;top=0;left=0;bottom=0;right=0;points=[[0,0.5],[1,0.5]];portConstraint=eastwest;" parent="FfchCcBJmLkpdb2am3XC-654" vertex="1">
          <mxGeometry y="91" width="160" height="29" as="geometry" />
        </mxCell>
        <mxCell id="FfchCcBJmLkpdb2am3XC-675" value="&lt;span&gt;&lt;font color=&quot;#0000ff&quot;&gt;●&lt;/font&gt;&lt;/span&gt;" style="shape=partialRectangle;html=1;whiteSpace=wrap;connectable=0;overflow=hidden;fillColor=none;top=0;left=0;bottom=0;right=0;" parent="FfchCcBJmLkpdb2am3XC-667" vertex="1">
          <mxGeometry width="30" height="29" as="geometry" />
        </mxCell>
        <mxCell id="FfchCcBJmLkpdb2am3XC-668" value="明" style="shape=partialRectangle;html=1;whiteSpace=wrap;connectable=0;overflow=hidden;fillColor=none;top=0;left=0;bottom=0;right=0;" parent="FfchCcBJmLkpdb2am3XC-667" vertex="1">
          <mxGeometry x="30" width="37" height="29" as="geometry" />
        </mxCell>
        <mxCell id="FfchCcBJmLkpdb2am3XC-669" value="00:00" style="shape=partialRectangle;html=1;whiteSpace=wrap;connectable=0;overflow=hidden;fillColor=none;top=0;left=0;bottom=0;right=0;" parent="FfchCcBJmLkpdb2am3XC-667" vertex="1">
          <mxGeometry x="67" width="51" height="29" as="geometry" />
        </mxCell>
        <mxCell id="FfchCcBJmLkpdb2am3XC-670" value="08:30" style="shape=partialRectangle;html=1;whiteSpace=wrap;connectable=0;overflow=hidden;fillColor=none;top=0;left=0;bottom=0;right=0;" parent="FfchCcBJmLkpdb2am3XC-667" vertex="1">
          <mxGeometry x="118" width="42" height="29" as="geometry" />
        </mxCell>
        <mxCell id="FfchCcBJmLkpdb2am3XC-671" value="" style="rounded=0;whiteSpace=wrap;html=1;strokeWidth=2;fontSize=15;fontColor=#000000;align=right;fillColor=none;strokeColor=#EDAE00;" parent="1" vertex="1">
          <mxGeometry x="2450" y="923.57" width="160" height="30" as="geometry" />
        </mxCell>
        <mxCell id="FfchCcBJmLkpdb2am3XC-676" value="更新" style="rounded=0;whiteSpace=wrap;html=1;fillColor=#2DB3FF;fontSize=15;align=center;fontColor=#FFFFFF;strokeColor=none;" parent="1" vertex="1">
          <mxGeometry x="2682.03" y="1105" width="55" height="25" as="geometry" />
        </mxCell>
        <mxCell id="FfchCcBJmLkpdb2am3XC-677" value="" style="endArrow=classic;html=1;fillColor=#ffffff;fontSize=15;fontColor=#000000;exitX=0;exitY=0.5;exitDx=0;exitDy=0;entryX=0;entryY=0.5;entryDx=0;entryDy=0;" parent="1" source="FfchCcBJmLkpdb2am3XC-676" target="FfchCcBJmLkpdb2am3XC-362" edge="1">
          <mxGeometry width="50" height="50" relative="1" as="geometry">
            <mxPoint x="2200" y="1040" as="sourcePoint" />
            <mxPoint x="2410" y="764" as="targetPoint" />
            <Array as="points">
              <mxPoint x="2400" y="1118" />
              <mxPoint x="2400" y="759" />
            </Array>
          </mxGeometry>
        </mxCell>
        <mxCell id="FfchCcBJmLkpdb2am3XC-682" value="&lt;font style=&quot;font-size: 30px&quot;&gt;ログイン認証&lt;br&gt;-----------------------------------------------&lt;br&gt;勤怠取得(期間指定) 残業とかも&lt;br&gt;現在の状態取得 出勤中or退勤中&lt;br&gt;シフトセット取得(日付 or ID指定)&lt;br&gt;打刻(時間指定)&lt;br&gt;-----------------------------------------------&lt;br&gt;シフトセット取得(一覧)&lt;br&gt;シフト作成&lt;br&gt;シフト編集(ID指定)&lt;br&gt;-----------------------------------------------&lt;br&gt;勤怠取得(期間指定)&lt;br&gt;勤怠更新(日付指定)&lt;br&gt;-----------------------------------------------&lt;br&gt;勤怠取得(期間指定)&lt;br&gt;シフト更新(期間指定)&lt;br&gt;&lt;/font&gt;" style="text;html=1;strokeColor=none;fillColor=none;align=left;verticalAlign=top;whiteSpace=wrap;rounded=0;fontSize=32;fontColor=#000000;labelPosition=center;verticalLabelPosition=middle;horizontal=1;" parent="1" vertex="1">
          <mxGeometry x="2439.17" y="1180" width="545" height="610" as="geometry" />
        </mxCell>
      </root>
    </mxGraphModel>
  </diagram>
</mxfile>
